<svg width="309" height="60" viewBox="0 0 309 60" fill="none" xmlns="http://www.w3.org/2000/svg">
    <path d="M4.704 48V14.4H9.36L29.904 41.904L29.136 42.336C29.008 41.536 28.896 40.672 28.8 39.744C28.704 38.784 28.608 37.776 28.512 36.72C28.448 35.632 28.384 34.496 28.32 33.312C28.288 32.096 28.256 30.832 28.224 29.52C28.192 28.208 28.176 26.848 28.176 25.44V14.4H33.36V48H28.608L8.4 21.504L8.928 20.832C9.088 22.784 9.216 24.448 9.312 25.824C9.44 27.168 9.536 28.32 9.6 29.28C9.696 30.208 9.76 30.976 9.792 31.584C9.824 32.16 9.84 32.64 9.84 33.024C9.872 33.408 9.888 33.744 9.888 34.032V48H4.704ZM42.7665 48V14.4H63.9345V19.392H47.9505V43.008H63.9345V48H42.7665ZM45.1185 33.264V28.272H61.2945V33.264H45.1185ZM85.3069 48.288C82.7149 48.288 80.3949 47.728 78.3469 46.608C76.2989 45.456 74.6829 43.888 73.4989 41.904C72.3469 39.888 71.7709 37.616 71.7709 35.088V14.352H76.9549V34.656C76.9549 36.288 77.3389 37.76 78.1069 39.072C78.8749 40.352 79.8829 41.376 81.1309 42.144C82.4109 42.912 83.8029 43.296 85.3069 43.296C86.9069 43.296 88.3469 42.912 89.6269 42.144C90.9389 41.376 91.9789 40.352 92.7469 39.072C93.5149 37.76 93.8989 36.288 93.8989 34.656V14.352H98.8429V35.088C98.8429 37.616 98.2509 39.888 97.0669 41.904C95.9149 43.888 94.3149 45.456 92.2669 46.608C90.2189 47.728 87.8989 48.288 85.3069 48.288ZM107.782 48V14.4H122.086C124.006 14.4 125.766 14.88 127.366 15.84C128.998 16.768 130.294 18.048 131.254 19.68C132.214 21.28 132.694 23.088 132.694 25.104C132.694 26.928 132.214 28.624 131.254 30.192C130.294 31.76 129.014 33.024 127.414 33.984C125.814 34.912 124.038 35.376 122.086 35.376H112.966V48H107.782ZM127.75 48L119.206 32.832L124.534 31.632L134.038 48.048L127.75 48ZM112.966 30.384H122.566C123.494 30.384 124.326 30.16 125.062 29.712C125.798 29.232 126.374 28.592 126.79 27.792C127.206 26.96 127.414 26.048 127.414 25.056C127.414 23.936 127.142 22.96 126.598 22.128C126.086 21.264 125.35 20.592 124.39 20.112C123.462 19.632 122.406 19.392 121.222 19.392H112.966V30.384ZM181.517 48V14.4H186.173L206.717 41.904L205.949 42.336C205.821 41.536 205.709 40.672 205.613 39.744C205.517 38.784 205.421 37.776 205.325 36.72C205.261 35.632 205.197 34.496 205.133 33.312C205.101 32.096 205.069 30.832 205.036 29.52C205.005 28.208 204.989 26.848 204.989 25.44V14.4H210.173V48H205.421L185.213 21.504L185.741 20.832C185.901 22.784 186.029 24.448 186.125 25.824C186.253 27.168 186.349 28.32 186.413 29.28C186.509 30.208 186.573 30.976 186.605 31.584C186.637 32.16 186.653 32.64 186.653 33.024C186.685 33.408 186.701 33.744 186.701 34.032V48H181.517ZM233.643 48.48C231.275 48.48 229.083 48.048 227.067 47.184C225.083 46.32 223.339 45.12 221.835 43.584C220.363 42.016 219.211 40.192 218.379 38.112C217.579 36 217.179 33.696 217.179 31.2C217.179 28.704 217.579 26.416 218.379 24.336C219.211 22.224 220.363 20.4 221.835 18.864C223.339 17.296 225.083 16.08 227.067 15.216C229.083 14.352 231.275 13.92 233.643 13.92C236.011 13.92 238.187 14.352 240.171 15.216C242.187 16.08 243.931 17.296 245.403 18.864C246.907 20.432 248.059 22.272 248.859 24.384C249.691 26.464 250.107 28.736 250.107 31.2C250.107 33.664 249.691 35.952 248.859 38.064C248.059 40.144 246.907 41.968 245.403 43.536C243.931 45.104 242.187 46.32 240.171 47.184C238.187 48.048 236.011 48.48 233.643 48.48ZM233.643 43.44C235.275 43.44 236.763 43.136 238.107 42.528C239.483 41.92 240.667 41.072 241.659 39.984C242.651 38.864 243.419 37.568 243.963 36.096C244.539 34.592 244.827 32.96 244.827 31.2C244.827 29.44 244.539 27.824 243.963 26.352C243.419 24.848 242.651 23.552 241.659 22.464C240.667 21.344 239.483 20.48 238.107 19.872C236.763 19.264 235.275 18.96 233.643 18.96C232.011 18.96 230.507 19.264 229.131 19.872C227.787 20.48 226.603 21.328 225.579 22.416C224.587 23.504 223.819 24.8 223.275 26.304C222.731 27.776 222.459 29.408 222.459 31.2C222.459 32.96 222.731 34.592 223.275 36.096C223.819 37.6 224.587 38.896 225.579 39.984C226.603 41.072 227.787 41.92 229.131 42.528C230.507 43.136 232.011 43.44 233.643 43.44ZM262.057 48V19.392H252.649V14.4H276.937V19.392H267.241V48H262.057ZM283.329 48V14.4H304.497V19.392H288.513V43.008H304.497V48H283.329ZM285.681 33.264V28.272H301.857V33.264H285.681Z" fill="#1E1E1E"/>
    <path d="M158.525 14.0928C158.721 13.9472 159.04 14.0136 159.263 14.0257C159.576 14.0428 159.886 14.0448 160.174 14.1836C160.302 14.2449 160.374 14.3337 160.488 14.4047C160.629 14.492 160.663 14.4869 160.847 14.5029C161.328 14.5447 161.826 14.746 162.241 14.9853C162.438 15.0988 162.647 15.4464 162.861 15.4855C163.092 15.5278 163.46 15.1998 163.678 15.1162C164.969 14.6213 166.153 15.0092 166.918 16.1569C167.185 16.5568 167.356 17.0187 167.348 17.5038C167.344 17.7594 167.176 18.0642 167.197 18.3039C167.231 18.7112 167.702 18.5878 167.982 18.6306C168.275 18.6754 168.514 18.7873 168.71 19.0224C169.063 19.4467 169.122 20.1691 169.161 20.7012C169.2 21.2416 169.259 21.7927 169.68 22.1519C170.136 22.5415 170.586 22.8576 170.899 23.3789C171.391 24.1977 171.423 24.9368 171.385 25.8666C171.368 26.2908 171.259 26.6876 171.16 27.0977C171.08 27.4307 171.112 27.3822 171.367 27.5827C171.621 27.7818 171.759 27.9856 171.885 28.2762C172.021 28.5895 172.107 28.8252 172.104 29.1634C172.103 29.3364 172.096 29.5094 172.087 29.6821C172.081 29.7961 172.073 29.91 172.064 30.0238C172.136 30.0643 172.207 30.1059 172.277 30.1485C172.492 30.4248 172.695 30.6618 172.845 30.9764C173.014 31.3313 173.18 31.8103 173.239 32.2109C173.353 32.9854 173.057 33.343 172.423 33.6922C172.96 34.3437 173.397 35.214 173.289 36.0857C173.227 36.5919 173.068 37.0096 172.732 37.3946C172.563 37.5888 172.389 37.7711 172.2 37.9462C172.059 38.0775 171.674 38.353 171.606 38.5431C171.535 38.7411 171.703 39.096 171.672 39.33C171.647 39.5196 171.518 39.7041 171.504 39.8856C171.492 40.0595 171.639 40.322 171.672 40.5606C171.706 40.8061 171.774 41.0388 171.801 41.2832C171.894 42.1032 171.67 42.7041 171.219 43.376C171.014 43.682 170.846 44.0037 170.609 44.2851C170.257 44.7029 169.963 44.9034 169.456 45.0818C169.325 45.128 169.115 45.1622 168.996 45.225C168.658 45.4041 168.753 46.1464 168.575 46.5163C168.385 46.9131 168.264 47.3481 167.957 47.6803C167.724 47.9332 167.423 48.02 167.128 48.1782C166.512 48.5096 165.864 48.5837 165.169 48.4996C164.764 48.4505 164.065 48.153 163.744 48.3354C163.609 48.4125 163.459 48.6383 163.338 48.7485C163.164 48.9073 162.981 49.0605 162.845 49.2512C162.63 49.5522 162.464 49.7272 162.107 49.915C161.668 50.1459 161.086 50.4403 160.597 50.5253C160.108 50.6103 159.482 50.632 159.001 50.5084C158.887 50.479 158.784 50.4396 158.679 50.3836C158.509 50.2933 158.388 50.0669 158.241 49.9941C158.223 49.9856 158.053 50.0443 157.998 50.0263C157.859 49.9808 157.739 49.9154 157.612 49.844C157.385 49.7175 157.173 49.5697 157.013 49.3592C156.648 48.8788 156.594 48.3055 156.667 47.7197C156.678 47.629 156.704 47.5402 156.717 47.4489C156.731 47.3486 156.706 47.2887 156.743 47.1826C156.758 47.1397 156.891 47.0517 156.897 47.0146C156.945 46.7569 156.812 46.3514 156.773 46.0959C156.678 45.4829 156.4 44.9188 156.382 44.2941C156.373 44.0064 156.375 43.6591 156.483 43.3874C156.599 43.0977 156.965 42.777 156.937 42.4593C156.911 42.1695 156.652 41.8403 156.551 41.5577C156.346 40.9889 156.438 40.3552 156.448 39.7631C156.458 39.2249 156.534 38.8925 156.656 38.39C156.743 38.0299 156.835 37.7206 156.96 37.3753C157.066 37.0849 157.056 37.0683 156.873 36.8163C156.787 36.6972 156.701 36.5598 156.666 36.4153C156.505 35.7601 156.912 34.8102 157.401 34.365C157.184 34.1303 157.008 33.9295 156.863 33.6291C156.632 33.1547 156.737 32.5508 156.739 32.024C156.742 31.3182 156.716 30.599 156.778 29.8947C156.793 29.7254 156.83 29.5805 156.872 29.4181C156.93 29.1941 156.992 28.9862 157.086 28.7716C157.2 28.5113 157.298 28.2476 157.409 27.9863C157.512 27.7444 157.666 27.4967 157.754 27.2541C157.126 27.1017 156.75 25.9905 156.732 25.4179C156.714 24.8248 156.694 24.1595 156.775 23.5704C156.793 23.4371 156.839 23.3084 156.876 23.1795C156.932 22.9839 156.973 22.7904 157.015 22.5915C157.067 22.3434 157.101 22.3448 156.968 22.1981C156.868 22.0874 156.788 22.1378 156.732 21.9708C156.691 21.8493 156.745 21.571 156.782 21.4463C156.866 21.1653 157.065 21.0099 157.294 20.841C157.03 20.7663 156.644 20.2383 156.521 20.0055C156.338 19.6622 156.384 19.2283 156.539 18.8842C156.658 18.6213 156.826 18.3775 156.97 18.1278C157.043 18.0011 157.185 17.8376 157.229 17.7015C157.294 17.4987 157.155 17.3392 157.066 17.1141C156.869 16.6135 156.878 15.8083 157.035 15.3056C157.103 15.0874 157.261 14.8444 157.438 14.7007C157.762 14.4375 158.215 14.3397 158.525 14.0929M158.978 14.3381C158.352 14.5571 157.73 14.7021 157.469 15.3844C157.238 15.9889 157.246 16.7753 157.546 17.3581C157.805 17.1264 158.081 16.9225 158.364 16.7225C158.481 16.6404 158.805 16.3024 158.943 16.3C159.251 16.2946 159.03 16.6854 158.874 16.8134C158.671 16.9783 158.398 17.0737 158.184 17.2286C157.8 17.5054 157.563 17.8257 157.318 18.2143C156.925 18.8378 156.62 19.3027 157.07 20.0019C157.35 20.4383 157.539 20.6942 158.062 20.429C158.373 20.2712 158.696 20.1435 159.037 20.058C159.422 19.9618 159.808 20.0041 160.195 20.0711C160.54 20.1307 160.861 20.2255 161.189 20.3313C161.358 20.3861 161.979 20.4618 161.961 20.7333C161.343 20.8342 160.743 20.4176 160.146 20.3196C159.703 20.2467 159.257 20.2929 158.829 20.4253C158.41 20.555 157.325 20.9122 157.271 21.4307C157.249 21.648 157.426 21.927 157.432 22.165C157.438 22.3816 157.425 22.6693 157.358 22.8774C157.245 23.2303 157.101 23.5116 157.072 23.8954C156.998 24.8594 156.9 26.3683 157.945 26.9065C158.019 26.7423 158.319 26.4498 158.524 26.5087C158.504 26.9129 158.036 27.391 157.863 27.7467C157.647 28.1887 157.461 28.6585 157.282 29.1168C156.899 30.0948 157.026 31.3751 157.026 32.4088C157.027 33.8675 158.098 34.5772 159.352 35.0505C159.595 35.1421 159.81 35.2211 160.017 35.3698C160.178 35.4849 160.349 35.6622 160.054 35.691C159.923 35.7037 159.754 35.5471 159.642 35.5012C159.492 35.4401 159.345 35.4103 159.188 35.3584C158.875 35.2541 158.586 35.1334 158.295 34.9726C158.168 34.9022 158.035 34.8081 157.898 34.7571C157.702 34.6838 157.79 34.6451 157.603 34.7495C157.297 34.9195 157.085 35.5107 157.058 35.8354C157.032 36.1342 157.166 36.3992 157.256 36.6803C157.43 36.4943 157.468 36.2394 157.744 36.1759C157.824 36.1576 158.139 36.1438 158.14 36.2881C158.14 36.3898 157.679 36.7522 157.603 36.8638C157.481 37.0433 157.412 37.2334 157.318 37.428C157.059 37.9682 156.86 38.6487 156.774 39.2524C156.627 40.2924 156.781 41.2225 157.175 42.1811C157.332 42.565 157.502 42.9634 157.618 43.3596C157.675 43.5523 157.708 43.8365 157.422 43.7058C157.278 43.6398 157.155 43.2787 157.123 43.1431C156.807 43.4352 156.643 43.7592 156.733 44.218C156.858 44.864 157.671 45.2769 158.262 45.3307C158.881 45.3871 159.685 45.3073 160.202 44.9252C160.469 44.7285 160.694 44.4194 160.802 44.1064C160.912 43.7848 160.766 43.421 161.138 43.331C161.523 43.2378 162.019 43.4032 162.327 43.077C162.669 42.7153 162.617 41.9457 162.464 41.5189C162.41 41.368 162.097 41.0518 162.133 40.8927C162.201 40.5968 162.434 40.8546 162.543 40.9592C162.895 41.2945 163.161 41.5748 163.606 41.7943C164.59 42.2796 165.681 42.2192 166.72 41.9149C167.196 41.7756 167.686 41.5734 167.99 41.1633C168.447 40.5451 168.825 39.645 168.962 38.8894C169.011 38.6179 169.001 38.3596 168.959 38.0875C168.944 37.9841 168.773 37.6431 168.782 37.5957C168.817 37.4032 169.22 37.3558 169.367 37.3063C169.753 37.176 170.125 36.9978 170.385 36.6717C170.53 36.4899 170.63 36.2773 170.694 36.0544C170.799 35.6877 170.466 35.5293 170.384 35.1662C170.327 34.9176 170.29 34.3973 170.653 34.6192C170.946 34.7982 170.911 35.2124 171.278 35.3447C171.582 35.4537 171.991 35.0443 172.162 35.1405C172.278 35.2061 172.294 35.4979 172.26 35.599C172.167 35.8733 171.855 35.8927 171.608 35.9082C171.409 35.9208 171.159 35.8761 171.06 36.004C170.981 36.1069 170.975 36.4136 170.911 36.5542C170.629 37.1748 169.901 37.6956 169.222 37.7196C169.608 38.6642 169.14 39.6208 168.747 40.4763C168.445 41.1333 168.083 41.7855 167.399 42.0854C166.714 42.3857 165.904 42.444 165.162 42.4626C164.236 42.4858 163.676 42.2923 162.904 41.7643C162.926 42.3283 162.971 42.8306 162.658 43.3379C162.309 43.9043 161.902 43.8894 161.304 43.763C161.252 44.6631 160.441 45.495 159.558 45.6265C158.561 45.7749 157.867 45.6521 156.952 45.3288C157 45.825 157.122 45.9034 157.475 46.2244C157.803 46.5223 158.182 46.658 158.543 46.8934C158.846 47.0908 158.87 47.3518 158.453 47.2168C157.979 47.0632 157.636 46.7764 157.218 46.502C157.186 47.0934 156.932 47.6514 157.008 48.2485C157.098 48.9663 157.545 49.2932 158.091 49.6945C158.082 49.4822 158.086 49.2234 158.261 49.071C158.381 49.2145 158.408 49.4044 158.503 49.5617C158.653 49.811 158.883 49.9441 159.154 50.0398C159.925 50.3133 160.678 50.123 161.415 49.8481C162.324 49.5092 162.757 48.657 163.577 48.1819C163.284 48.0119 163.033 47.8953 162.761 47.6763C162.46 47.435 162.06 47.2875 161.793 47.0175C161.512 47.4426 160.891 47.8426 160.373 47.8579C159.885 47.8723 160.062 47.6406 160.378 47.4941C160.753 47.3206 161.138 47.1767 161.421 46.859C161.576 46.6843 161.686 46.4768 161.749 46.2517C161.832 45.9514 161.799 45.3685 162.077 45.1784C162.33 45.4988 162.178 45.8968 162.08 46.2345C162.018 46.4499 162.012 46.4989 162.122 46.6648C162.149 46.7061 162.409 46.9652 162.459 46.9719C162.582 46.9885 163.073 46.6325 163.189 46.5268C163.308 46.4188 163.429 46.2536 163.482 46.099C163.679 45.5132 163.441 45.0843 163.15 44.6014C163.058 44.4495 162.851 44.1045 163.198 44.1074C163.378 44.1088 163.626 44.426 163.765 44.5199C163.967 44.6555 164.178 44.7273 164.415 44.7782C164.542 44.8055 164.678 44.8356 164.808 44.8365C164.893 44.8371 165.244 44.7227 165.302 44.7685C165.422 44.8637 165.13 45.1601 165.025 45.2098C164.883 45.277 164.655 45.2578 164.501 45.2468C164.421 45.2525 164.341 45.2484 164.261 45.2345C164.117 45.133 164.046 45.1763 164.05 45.3642C163.829 45.7229 163.897 46.1904 163.657 46.5574C163.437 46.8949 163.174 47.1644 162.753 47.2321C163.814 48.2191 165.609 48.4203 166.911 47.8842C167.432 47.6698 167.729 47.3705 168.001 46.88C168.297 46.3448 168.332 45.8252 168.503 45.2494C167.981 45.2524 167.606 45.2317 167.098 45.1045C167.143 45.7405 166.941 46.2479 166.309 46.4954C166.092 46.5804 164.594 46.7717 164.764 46.2861C164.83 46.0979 165.386 46.1614 165.517 46.16C165.866 46.1562 166.168 46.1174 166.44 45.8715C166.668 45.6658 166.904 45.2594 166.704 44.9957C166.536 44.773 166.149 44.5593 165.933 44.3636C165.804 44.2462 165.503 44.0022 165.458 43.8145C165.323 43.2519 165.94 43.8682 166.051 43.9812C166.435 44.3714 166.949 44.7409 167.496 44.8429C168.683 45.0643 169.89 44.7842 170.6 43.752C171.328 42.6932 171.719 41.6544 171.2 40.4191C171.005 40.5446 169.382 40.9578 169.392 40.4416C169.715 40.3248 170.078 40.4306 170.41 40.3253C170.802 40.2007 171.105 39.8567 171.205 39.4586C171.297 39.0937 171.159 38.8598 171.129 38.5103C171.099 38.1694 171.166 38.1822 171.471 38.0619C172.49 37.6598 173.112 36.3861 172.876 35.3383C172.82 35.0903 172.738 34.8001 172.629 34.5737C172.563 34.4372 172.468 34.3117 172.385 34.1865C172.24 33.9709 172.264 33.9257 172.062 33.934C171.764 33.9462 171.463 34.1723 171.166 34.2071C170.87 34.2417 170.725 34.1497 170.495 34.348C169.592 35.1297 169.308 36.4106 167.943 36.5777C167.732 36.6036 166.87 36.6215 167.442 36.3118C167.93 36.0476 168.486 36.1166 168.95 35.737C169.226 35.5119 169.397 35.2066 169.592 34.9148C169.698 34.7563 169.835 34.5918 169.908 34.4141C169.966 34.2724 169.927 34.0255 170.03 33.9207C170.224 33.7244 170.709 33.9416 170.941 33.9225C171.286 33.8942 171.684 33.6784 171.987 33.5107C172.367 33.3006 172.809 32.9198 172.879 32.4722C172.968 31.907 172.541 30.9179 172.089 30.5774C171.839 30.3893 171.85 30.5154 171.676 30.737C171.58 30.8586 171.482 30.9913 171.36 31.0889C171.297 31.1401 171.062 31.2077 171.032 31.2479C170.961 31.3426 170.934 31.8033 170.872 31.954C170.799 32.1359 170.712 32.2415 170.607 32.3956C170.454 32.6196 170.291 32.9115 170.066 33.0726C169.887 33.2009 169.446 33.2993 169.526 32.989C169.586 32.7589 170.047 32.5532 170.204 32.3605C170.648 31.8173 170.76 31.0699 170.559 30.4147C170.439 30.0247 170.265 29.6181 169.997 29.306C169.886 29.1772 169.188 28.6507 169.84 28.7524C170.133 28.7981 170.442 29.303 170.573 29.5312C170.791 29.9138 170.906 30.3369 171.015 30.7611C171.567 30.4785 171.785 29.7347 171.744 29.153C171.718 28.7789 171.581 28.3386 171.338 28.0534C171.284 27.9904 171 27.6886 170.896 27.7021C170.787 27.7162 170.666 27.9646 170.578 28.0413C170.487 28.12 170.288 28.2846 170.167 28.2259C169.934 28.1128 170.217 27.9457 170.289 27.8732C170.572 27.5851 170.702 27.2297 170.838 26.8548C171.082 26.1862 171.138 25.4349 171.038 24.733C170.931 23.9725 170.569 23.3468 169.996 22.8575C169.714 22.616 169.381 22.1241 169.024 22.2401C168.817 22.3074 168.291 22.7082 168.289 22.3075C168.289 22.2631 168.424 21.9452 168.457 21.8713C168.538 21.6866 168.542 21.7833 168.701 21.6688C168.921 21.51 168.854 21.4175 168.839 21.1024C168.828 20.8583 168.849 20.611 168.826 20.3676C168.752 19.5976 168.426 19.0774 167.665 18.9223C167.568 18.9024 167.143 18.7927 167.079 18.8725C167.052 18.9077 167.231 19.3175 167.253 19.4221C167.29 19.5914 167.298 19.7422 167.298 19.921C167.299 20.0654 167.382 20.4826 167.211 20.5433C167.01 20.6152 167.016 20.3845 167.005 20.2621C166.966 19.8486 166.942 19.5349 166.781 19.1314C166.266 19.4567 166.233 19.0771 166.122 18.6851C166.052 18.4385 166.06 18.4368 165.812 18.3102C165.7 18.2532 165.566 18.1726 165.451 18.1299C165.352 18.0928 164.872 18.0651 164.863 17.895C164.837 17.3955 166.642 18.3664 166.785 18.4744C166.982 17.9042 167.168 17.3992 166.903 16.8246C166.658 16.294 166.165 15.6154 165.619 15.3719C165.158 15.1659 164.621 15.1807 164.151 15.3299C163.944 15.3956 163.717 15.4866 163.525 15.584C163.351 15.6718 163.247 15.7983 163.061 15.8538C163.081 15.9304 163.177 16.1481 163.221 16.2117C163.318 16.3551 163.221 16.3005 163.418 16.3702C163.599 16.4343 163.912 16.3192 164.073 16.4164C164.381 16.6018 163.81 16.6943 163.611 16.6882C163.353 16.6802 163.286 16.5666 163.219 16.8387C163.188 16.9624 163.196 17.1105 163.177 17.2392C163.145 17.4535 163.25 18.2537 163.118 18.3815C162.934 18.5599 162.765 18.2884 162.742 18.132C162.708 17.8976 162.799 17.5251 162.828 17.2868C162.884 16.8304 162.969 16.4266 162.739 15.9915C162.35 15.2552 161.532 14.9395 160.765 14.7858C160.918 15.0374 161.021 15.2892 161.101 15.5759C161.136 15.7041 161.121 15.9617 161.199 16.0724C161.254 16.1499 161.424 16.1758 161.496 16.2624C161.75 16.5671 161.676 17.2519 161.398 17.5014C161.072 17.794 160.591 17.7092 160.198 17.6428C160.111 17.6281 159.749 17.6163 159.739 17.5138C159.71 17.2357 160.281 17.4333 160.348 17.4375C160.71 17.4599 161.273 17.1362 161.094 16.6794C161.057 16.5863 160.973 16.6089 160.939 16.5449C160.847 16.3746 160.843 16.2682 160.822 16.0595C160.731 15.1559 160.087 14.0119 158.978 14.3381C159.029 14.3232 158.878 14.3731 158.978 14.3381L158.978 14.3381Z" fill="black"/>
    <path d="M162.858 18.8836C163.299 18.7195 163.951 19.492 164.052 19.8514C164.146 20.1845 164.149 20.6852 164.086 21.0233C164.374 20.9989 164.654 20.9799 164.931 20.899C165.183 20.8254 165.338 20.7137 165.25 21.0527C165.172 21.3563 164.903 21.4172 164.624 21.4486C164.44 21.4693 164.197 21.3812 164.029 21.4222C163.851 21.4655 163.805 21.6083 163.634 21.7398C163.253 22.0311 162.843 22.0197 162.395 22.0515C162.448 22.2038 162.774 23.2912 162.32 22.8782C162.142 22.7167 162.117 22.3637 162.01 22.1531C161.953 22.0407 161.389 21.4747 161.596 21.3191C161.735 21.2142 162.158 21.761 162.306 21.7704C162.572 21.7874 163.183 21.4728 163.388 21.3102C163.788 20.9939 163.757 20.4694 163.634 20.0195C163.484 19.4727 163.096 19.3378 162.858 18.8836C162.923 18.8591 162.91 18.9826 162.858 18.8836Z" fill="black"/>
    <path d="M159.183 21.367C159.159 20.9889 159.707 21.5699 159.748 21.6298C159.89 21.8375 160.205 22.3058 159.799 22.3482C160.493 22.3482 161.152 22.5656 161.628 23.0883C162.249 23.7691 162.474 24.7616 163.168 25.3812C163.738 25.8898 164.211 26.0358 164.933 25.7984C165.402 25.6443 165.546 25.3608 165.906 25.0988C166.781 26.2169 164.31 26.2997 163.769 26.3223C164.156 26.8403 163.677 27.7185 163.293 28.0987C163.812 28.4773 163.918 29.1956 163.588 29.7463C163.173 30.439 162.252 30.6386 161.508 30.5141C161.499 30.8695 161.527 31.1721 161.431 31.5075C162.466 31.6905 163.304 32.6378 163.33 33.6887C163.602 33.6266 163.847 33.5258 164.13 33.5285C164.73 33.5341 165.345 33.8117 165.884 34.0413C166.014 33.481 166.395 33.0636 166.94 32.8979C167.192 32.8215 167.889 32.6478 168.083 32.9201C167.735 33.088 167.343 33.0257 166.994 33.1954C166.698 33.3391 166.523 33.5771 166.387 33.869C166.313 34.0268 166.257 34.3522 166.107 34.4598C165.879 34.6232 165.661 34.3086 165.46 34.1896C165.139 34.0006 164.7 33.8466 164.326 33.8213C164.125 33.8078 163.442 33.8547 163.323 33.9914C163.236 34.0909 163.296 34.4903 163.271 34.6421C163.248 34.7876 163.206 34.914 163.171 35.0544C163.14 35.1793 163.138 35.3324 163.064 35.4424C162.99 35.554 162.643 35.7593 162.526 35.5688C162.463 35.4668 162.803 35.0005 162.838 34.899C162.971 34.5188 163.058 33.9713 162.993 33.5717C162.89 32.9369 162.424 32.2344 161.841 31.9506C161.203 31.6399 160.773 31.7721 160.387 32.34C160.29 32.4818 160.156 32.7567 159.962 32.7653C159.742 32.7751 159.438 32.428 159.215 32.3599C158.691 32.2002 158.416 32.4524 158.134 32.8161C157.9 33.1164 157.422 33.4214 157.613 32.7658C157.925 31.6942 159.187 32.0093 159.923 32.2712C160.159 31.6725 160.545 31.4433 161.16 31.4601C161.136 31.1448 161.22 30.8492 161.135 30.5395C161.045 30.2116 160.871 30.0281 160.63 29.8081C160.521 29.7078 160.257 29.5247 160.426 29.3939C160.512 29.3269 160.624 29.3974 160.707 29.4242C160.925 29.4949 161.106 29.6745 161.235 29.856C161.325 29.9836 161.376 30.1504 161.512 30.2077C161.617 30.2519 161.831 30.2148 161.942 30.2049C162.228 30.1792 162.537 30.0915 162.789 29.9486C162.999 29.8299 163.132 29.6786 163.229 29.4588C163.428 29.0106 163.232 28.8024 163.027 28.4403C162.848 28.1231 163.017 28.0016 163.195 27.7322C163.364 27.4739 163.491 27.1689 163.477 26.8567C163.459 26.4705 163.408 26.1264 163.13 25.8244C162.799 25.4642 162.483 25.1956 162.257 24.743C161.957 24.1388 161.65 23.4589 161.103 23.0307C160.615 22.6484 159.822 22.5701 159.218 22.6015C159.09 22.6082 158.451 22.7256 158.673 22.4277C158.82 22.2314 159.388 22.3327 159.572 22.3405C159.5 22.1955 159.498 22.0205 159.438 21.8696C159.367 21.6932 159.226 21.5572 159.183 21.3669C159.231 21.5803 159.177 21.2686 159.183 21.3669L159.183 21.367Z" fill="black"/>
    <path d="M166.044 21.3901C166.349 21.8517 166.409 22.7246 166.367 23.255C166.356 23.3874 166.287 23.5377 166.286 23.6639C166.285 23.832 166.356 23.9555 166.468 24.1121C166.681 24.4118 166.961 24.6633 167.193 24.9494C167.631 24.2243 167.863 23.7179 167.644 22.842C167.587 22.6132 167.515 22.43 167.356 22.2566C167.23 22.1188 167.006 22.0184 167.015 21.8086C167.377 21.8103 167.784 22.1967 167.968 22.5012C168.149 22.7979 168.077 23.2629 168.101 23.5913C168.443 23.5814 168.714 23.5977 169.043 23.6845C169.242 23.7368 169.893 23.8353 169.849 24.125C169.784 24.5514 169.391 24.2085 169.25 24.1206C168.939 23.9263 168.697 23.9266 168.346 23.9554C168.011 23.983 168.135 23.9741 168.056 24.2633C168.016 24.407 167.916 24.5344 167.845 24.6631C167.774 24.7915 167.711 24.9212 167.617 25.035C167.45 25.2372 167.428 25.1473 167.494 25.356C167.573 25.6067 167.892 25.8257 168.023 26.0602C168.204 26.3837 168.35 26.7731 168.441 27.1333C168.955 26.5008 169.547 26.1849 170.375 26.4367C170.359 26.7143 169.82 26.6537 169.658 26.6915C169.509 26.7261 169.33 26.7886 169.202 26.8787C169.12 26.937 169.05 27.024 168.977 27.0934C168.878 27.1867 168.573 27.3762 168.536 27.4945C168.502 27.6021 168.58 27.795 168.592 27.9017C168.674 28.637 168.581 29.7885 168.058 30.3764C168.423 30.4233 168.855 30.6889 169.094 30.9638C169.195 31.0793 169.53 31.7221 169.303 31.8128C169.047 31.9152 168.681 31.0641 168.489 30.9278C168.387 30.855 167.974 30.5973 167.855 30.6333C167.723 30.6727 167.552 30.994 167.454 31.0997C167.161 31.4148 166.807 31.6953 166.414 31.8756C166.282 31.9363 165.802 32.1597 165.658 32.0133C165.484 31.8361 165.934 31.6733 166.048 31.6254C167.338 31.0798 168.317 29.7853 168.299 28.3456C168.283 26.9965 167.511 25.4263 166.403 24.6189C166.161 24.4421 165.685 24.369 165.686 24.0554C165.686 23.7291 166.011 23.3876 166.044 23.0459C166.069 22.7875 166.02 22.4955 165.947 22.2494C165.881 22.0243 165.687 21.5033 166.044 21.3902C166.184 21.6029 165.952 21.4194 166.044 21.3902V21.3901Z" fill="black"/>
    <path d="M159.343 24.2665C159.686 24.2305 160.046 24.6393 160.298 24.8073C160.481 24.9284 160.69 25.0607 160.908 25.1006C161.148 25.1446 161.325 25.0483 161.559 25.0338C161.695 25.4449 161.415 25.6124 161.095 25.6407C160.798 25.6668 160.651 25.5577 160.459 25.8204C160.331 25.9964 160.258 26.2112 160.205 26.4196C160.086 26.8776 160.105 27.2176 160.24 27.6647C160.269 27.7598 160.29 27.8584 160.318 27.9528C160.381 28.1653 160.298 28.1117 160.472 28.2164C160.661 28.3309 160.858 28.2001 160.978 28.4653C160.933 28.5882 159.708 28.3724 159.497 28.4201C159.25 28.476 159.019 28.626 158.816 28.7713C158.682 28.8665 158.412 29.2029 158.239 29.181C157.753 29.1192 158.678 28.4205 158.836 28.3375C159.237 28.1265 159.607 28.1573 160.037 28.1411C159.669 27.5236 159.612 26.7379 159.924 26.0505C159.98 25.9283 160.289 25.5916 160.278 25.4666C160.27 25.3832 160.034 25.1742 159.979 25.111C159.863 24.9783 159.753 24.8022 159.617 24.6993C159.529 24.6329 158.858 24.3271 159.343 24.2665C159.425 24.2579 159.193 24.2852 159.343 24.2665Z" fill="black"/>
    <path d="M161.183 35.854C161.091 35.5048 161.605 35.8295 161.67 35.9444C161.761 36.1029 161.78 36.2416 161.792 36.4231C161.82 36.8727 161.8 37.2222 161.5 37.5586C161.955 37.669 162.553 37.5003 162.983 37.3587C163.253 37.27 163.458 37.1566 163.663 36.9573C163.813 36.8112 163.948 36.5731 164.177 36.5445C164.336 37.0586 163.917 37.2534 163.572 37.4861C162.999 37.8724 162.418 37.888 161.738 37.9174C161.483 37.9284 161.205 37.9561 160.959 37.8744C160.914 37.8595 160.88 37.8232 160.837 37.806C160.738 37.7667 160.648 37.7054 160.54 37.6882C160.318 37.6529 160.22 37.7302 160.009 37.8271C159.734 37.953 159.122 38.2465 158.804 38.1589C158.188 37.989 159.355 37.769 159.451 37.7349C159.682 37.6533 159.715 37.5192 159.893 37.3854C160.141 37.1977 160.423 37.2487 160.711 37.2836C160.929 37.3099 160.999 37.3657 161.162 37.1897C161.268 37.0755 161.323 36.8776 161.35 36.729C161.413 36.3907 161.246 36.1753 161.183 35.854C161.204 35.961 161.162 35.776 161.183 35.854Z" fill="black"/>
    <path d="M166.126 36.4013C166.159 36.3498 166.191 36.2983 166.223 36.2468C166.65 36.5795 166.664 37.2163 166.785 37.698C166.901 38.1635 167.016 38.7341 166.704 39.1313C166.392 39.5269 165.91 39.6558 165.424 39.6708C165.171 39.6786 164.936 39.6688 164.701 39.5604C164.653 39.5385 164.576 39.4864 164.527 39.4753C164.468 39.3628 164.409 39.3464 164.35 39.4259C164.291 39.473 164.233 39.5211 164.175 39.5703C163.075 40.2655 161.574 40.3353 160.364 40.0024C160.419 40.4637 160.503 41.0079 160.105 41.3554C159.943 41.4964 159.375 41.6455 159.177 41.514C158.911 41.3381 159.295 41.1777 159.465 41.0718C159.714 40.9162 159.981 40.832 160.051 40.5206C160.087 40.3613 160.064 39.8886 159.991 39.7923C159.958 39.7498 158.306 38.9237 158.91 38.6894C159.084 38.622 159.35 38.9865 159.468 39.0877C159.692 39.2803 159.924 39.4243 160.198 39.5377C160.881 39.8208 161.489 39.9142 162.218 39.8136C162.805 39.7325 163.392 39.5638 163.864 39.1901C163.97 39.1057 164.082 38.9414 164.202 38.8825C164.389 38.7912 164.344 38.857 164.524 38.9635C165.153 39.3361 166.279 39.3384 166.513 38.4914C166.704 37.8031 166.131 37.0839 166.126 36.4013C166.146 36.343 166.128 36.5806 166.126 36.4013H166.126Z" fill="black"/>
    <path d="M153.781 14.0928C154.091 14.3396 154.544 14.4374 154.868 14.7006C155.044 14.8442 155.203 15.0873 155.271 15.3055C155.428 15.8082 155.437 16.6134 155.239 17.114C155.15 17.3391 155.012 17.4985 155.077 17.7013C155.121 17.8375 155.263 18.001 155.336 18.1276C155.48 18.3773 155.648 18.6211 155.766 18.8841C155.922 19.2282 155.968 19.6621 155.785 20.0053C155.661 20.2382 155.276 20.7662 155.011 20.8409C155.241 21.0098 155.439 21.1652 155.524 21.4462C155.561 21.5709 155.614 21.8492 155.574 21.9707C155.517 22.1377 155.438 22.0872 155.338 22.198C155.205 22.3446 155.239 22.3432 155.291 22.5913C155.333 22.7902 155.374 22.9838 155.43 23.1794C155.467 23.3083 155.513 23.4369 155.531 23.5702C155.612 24.1594 155.592 24.8247 155.574 25.4178C155.556 25.9904 155.18 27.1016 154.552 27.254C154.64 27.4965 154.794 27.7443 154.897 27.9862C155.008 28.2475 155.106 28.5112 155.22 28.7715C155.314 28.986 155.376 29.1939 155.434 29.4179C155.476 29.5804 155.513 29.7252 155.528 29.8946C155.59 30.5988 155.563 31.3181 155.567 32.0239C155.569 32.5507 155.674 33.1546 155.443 33.629C155.297 33.9293 155.122 34.1302 154.905 34.3649C155.394 34.8101 155.801 35.76 155.64 36.4152C155.604 36.5597 155.519 36.6971 155.433 36.8162C155.25 37.0681 155.24 37.0848 155.346 37.3752C155.471 37.7205 155.563 38.0298 155.65 38.3899C155.772 38.8923 155.848 39.2248 155.857 39.763C155.868 40.3551 155.959 40.9887 155.755 41.5576C155.654 41.8401 155.395 42.1694 155.369 42.4592C155.34 42.7769 155.707 43.0976 155.823 43.3873C155.931 43.659 155.933 44.0063 155.924 44.294C155.906 44.9186 155.628 45.4828 155.533 46.0958C155.493 46.3512 155.361 46.7568 155.409 47.0145C155.415 47.0516 155.548 47.1395 155.563 47.1825C155.6 47.2886 155.575 47.3485 155.589 47.4488C155.602 47.5401 155.627 47.6288 155.639 47.7196C155.712 48.3054 155.658 48.8787 155.293 49.3591C155.133 49.5696 154.921 49.7174 154.694 49.8438C154.566 49.9152 154.447 49.9806 154.308 50.0262C154.253 50.0442 154.083 49.9855 154.065 49.994C153.918 50.0668 153.797 50.2932 153.627 50.3835C153.522 50.4395 153.419 50.4789 153.304 50.5083C152.824 50.6318 152.198 50.6102 151.709 50.5252C151.22 50.4402 150.637 50.1458 150.199 49.9149C149.842 49.727 149.676 49.5521 149.461 49.2511C149.325 49.0604 149.142 48.9072 148.968 48.7484C148.847 48.6382 148.697 48.4123 148.562 48.3353C148.241 48.1529 147.542 48.4504 147.137 48.4995C146.442 48.5836 145.794 48.5095 145.177 48.1781C144.883 48.0199 144.582 47.9331 144.349 47.6802C144.042 47.348 143.921 46.913 143.73 46.5162C143.552 46.1463 143.648 45.404 143.31 45.2249C143.191 45.1621 142.981 45.1279 142.849 45.0816C142.343 44.9033 142.049 44.7028 141.697 44.285C141.46 44.0036 141.292 43.6819 141.086 43.3759C140.636 42.704 140.412 42.103 140.505 41.2831C140.532 41.0387 140.6 40.8059 140.634 40.5605C140.667 40.3219 140.814 40.0594 140.802 39.8854C140.788 39.704 140.658 39.5195 140.634 39.3299C140.603 39.0959 140.771 38.741 140.7 38.543C140.632 38.3528 140.247 38.0774 140.106 37.9461C139.917 37.7709 139.743 37.5887 139.573 37.3944C139.238 37.0095 139.079 36.5918 139.016 36.0856C138.909 35.214 139.346 34.3437 139.883 33.692C139.249 33.3428 138.953 32.9852 139.067 32.2107C139.126 31.8102 139.292 31.3312 139.461 30.9763C139.611 30.6617 139.814 30.4247 140.028 30.1484C140.099 30.1058 140.17 30.0642 140.242 30.0237C140.233 29.9099 140.225 29.796 140.219 29.682C140.21 29.5093 140.203 29.3363 140.202 29.1633C140.199 28.8251 140.285 28.5894 140.421 28.276C140.547 27.9855 140.685 27.7817 140.939 27.5826C141.194 27.3821 141.226 27.4305 141.146 27.0976C141.047 26.6875 140.938 26.2907 140.921 25.8665C140.883 24.9367 140.915 24.1976 141.407 23.3788C141.72 22.8575 142.17 22.5414 142.626 22.1518C143.047 21.7926 143.106 21.2415 143.145 20.7011C143.184 20.169 143.243 19.4466 143.596 19.0223C143.792 18.7872 144.031 18.6753 144.324 18.6305C144.604 18.5877 145.075 18.7111 145.109 18.3037C145.13 18.0641 144.962 17.7593 144.958 17.5037C144.95 17.0186 145.121 16.5567 145.388 16.1567C146.153 15.009 147.337 14.6211 148.628 15.1161C148.846 15.1996 149.214 15.5276 149.445 15.4853C149.659 15.4463 149.868 15.0987 150.065 14.9852C150.48 14.7459 150.978 14.5445 151.459 14.5028C151.643 14.4868 151.677 14.4919 151.818 14.4046C151.932 14.3336 152.004 14.2447 152.132 14.1835C152.42 14.0447 152.73 14.0426 153.043 14.0256C153.266 14.0135 153.585 13.9471 153.781 14.0927M153.328 14.3379C152.219 14.0117 151.574 15.1557 151.484 16.0594C151.463 16.268 151.459 16.3745 151.367 16.5447C151.332 16.6087 151.249 16.5861 151.212 16.6792C151.033 17.136 151.596 17.4597 151.957 17.4373C152.025 17.4331 152.596 17.2355 152.567 17.5136C152.557 17.6161 152.195 17.6279 152.108 17.6426C151.715 17.709 151.234 17.7938 150.908 17.5012C150.63 17.2517 150.555 16.5669 150.81 16.2622C150.882 16.1756 151.051 16.1497 151.107 16.0722C151.185 15.9615 151.17 15.7039 151.205 15.5757C151.284 15.289 151.388 15.0372 151.541 14.7856C150.774 14.9393 149.956 15.255 149.567 15.9913C149.337 16.4264 149.422 16.8302 149.478 17.2867C149.507 17.5249 149.598 17.8974 149.564 18.1318C149.541 18.2882 149.372 18.5597 149.188 18.3813C149.055 18.2536 149.161 17.4533 149.129 17.239C149.11 17.1103 149.118 16.9622 149.087 16.8385C149.02 16.5664 148.952 16.68 148.694 16.688C148.496 16.6941 147.925 16.6016 148.232 16.4162C148.393 16.319 148.707 16.4341 148.888 16.37C149.084 16.3003 148.988 16.3549 149.085 16.2115C149.128 16.1479 149.225 15.9302 149.245 15.8536C149.059 15.7981 148.955 15.6716 148.781 15.5838C148.589 15.4864 148.362 15.3954 148.155 15.3297C147.685 15.1805 147.148 15.1657 146.686 15.3717C146.141 15.6152 145.648 16.2938 145.403 16.8244C145.137 17.399 145.323 17.904 145.521 18.4742C145.663 18.3662 147.469 17.3952 147.442 17.8948C147.433 18.0649 146.954 18.0927 146.855 18.1297C146.74 18.1724 146.605 18.2531 146.494 18.3101C146.246 18.4366 146.254 18.4383 146.184 18.6849C146.073 19.0769 146.04 19.4565 145.525 19.1312C145.364 19.5347 145.34 19.8484 145.301 20.2619C145.29 20.3844 145.296 20.615 145.094 20.5431C144.924 20.4824 145.007 20.0652 145.007 19.9208C145.007 19.742 145.016 19.5912 145.052 19.4219C145.075 19.3173 145.254 18.9076 145.226 18.8724C145.163 18.7925 144.738 18.9022 144.64 18.9221C143.88 19.0772 143.553 19.5975 143.48 20.3674C143.456 20.6108 143.478 20.8581 143.467 21.1022C143.452 21.4173 143.385 21.5098 143.605 21.6686C143.764 21.7831 143.768 21.6864 143.849 21.8711C143.882 21.945 144.017 22.2629 144.016 22.3073C144.015 22.708 143.489 22.3072 143.282 22.2399C142.925 22.1239 142.592 22.6158 142.309 22.8573C141.737 23.3466 141.375 23.9724 141.267 24.7328C141.168 25.4347 141.224 26.186 141.467 26.8546C141.604 27.2295 141.734 27.5849 142.017 27.873C142.088 27.9455 142.372 28.1126 142.139 28.2257C142.018 28.2844 141.818 28.1199 141.728 28.0411C141.64 27.9644 141.519 27.716 141.41 27.7019C141.306 27.6885 141.022 27.9903 140.968 28.0532C140.724 28.3384 140.588 28.7787 140.562 29.1528C140.521 29.7345 140.739 30.4784 141.291 30.7609C141.399 30.3368 141.515 29.9136 141.733 29.531C141.864 29.3028 142.173 28.7979 142.466 28.7522C143.118 28.6505 142.42 29.177 142.309 29.3059C142.041 29.6179 141.867 30.0245 141.747 30.4145C141.545 31.0697 141.658 31.8171 142.101 32.3603C142.259 32.553 142.72 32.7587 142.78 32.9888C142.86 33.2991 142.419 33.2007 142.24 33.0724C142.014 32.9113 141.852 32.6193 141.699 32.3954C141.594 32.2413 141.507 32.1357 141.433 31.9538C141.372 31.8031 141.344 31.3424 141.274 31.2477C141.244 31.2076 141.009 31.1399 140.946 31.0887C140.824 30.9911 140.726 30.8584 140.63 30.7368C140.456 30.5152 140.467 30.3891 140.217 30.5772C139.765 30.9177 139.338 31.9069 139.426 32.472C139.497 32.9196 139.939 33.3004 140.318 33.5105C140.621 33.6782 141.02 33.894 141.364 33.9223C141.597 33.9414 142.082 33.7242 142.276 33.9205C142.379 34.0253 142.34 34.2722 142.398 34.4139C142.471 34.5916 142.608 34.7561 142.714 34.9146C142.909 35.2064 143.08 35.5117 143.355 35.7368C143.82 36.1165 144.376 36.0474 144.864 36.3116C145.436 36.6213 144.574 36.6034 144.363 36.5775C142.998 36.4104 142.714 35.1296 141.81 34.3478C141.581 34.1495 141.436 34.2415 141.14 34.2069C140.842 34.1721 140.542 33.946 140.244 33.9338C140.041 33.9255 140.065 33.9707 139.921 34.1863C139.837 34.3116 139.743 34.437 139.677 34.5735C139.568 34.8 139.486 35.0901 139.43 35.3381C139.194 36.3859 139.816 37.6596 140.835 38.0617C141.14 38.182 141.207 38.1692 141.177 38.5101C141.147 38.8596 141.009 39.0935 141.101 39.4584C141.201 39.8565 141.503 40.2005 141.896 40.3251C142.228 40.4304 142.591 40.3246 142.914 40.4414C142.923 40.9576 141.301 40.5444 141.106 40.419C140.587 41.6542 140.978 42.6931 141.706 43.7518C142.415 44.784 143.623 45.0641 144.81 44.8427C145.356 44.7408 145.871 44.3712 146.255 43.981C146.366 43.868 146.982 43.2517 146.848 43.8143C146.803 44.002 146.502 44.246 146.373 44.3634C146.157 44.5591 145.77 44.7728 145.602 44.9955C145.402 45.2592 145.638 45.6656 145.866 45.8713C146.138 46.1172 146.44 46.156 146.789 46.1598C146.92 46.1612 147.476 46.0977 147.542 46.2859C147.712 46.7715 146.213 46.5802 145.997 46.4952C145.364 46.2478 145.163 45.7403 145.208 45.1043C144.7 45.2315 144.325 45.2522 143.803 45.2492C143.974 45.825 144.009 46.3446 144.305 46.8798C144.577 47.3703 144.874 47.6696 145.394 47.884C146.696 48.4202 148.492 48.2189 149.553 47.2319C149.132 47.1642 148.869 46.8947 148.649 46.5572C148.409 46.1903 148.477 45.7227 148.256 45.364C148.259 45.1761 148.189 45.1328 148.044 45.2343C147.965 45.2483 147.885 45.2524 147.805 45.2466C147.651 45.2576 147.423 45.2768 147.281 45.2096C147.176 45.1599 146.883 44.8635 147.004 44.7683C147.062 44.7225 147.413 44.8369 147.497 44.8363C147.628 44.8354 147.764 44.8053 147.891 44.7781C148.128 44.7271 148.339 44.6554 148.541 44.5197C148.68 44.4258 148.927 44.1086 149.108 44.1072C149.455 44.1043 149.247 44.4493 149.156 44.6012C148.865 45.0841 148.627 45.513 148.824 46.0988C148.876 46.2534 148.997 46.4186 149.117 46.5267C149.233 46.6323 149.724 46.9883 149.847 46.9717C149.896 46.965 150.157 46.7059 150.184 46.6646C150.294 46.4987 150.288 46.4497 150.226 46.2343C150.128 45.8966 149.975 45.4987 150.229 45.1782C150.507 45.3683 150.474 45.9512 150.557 46.2515C150.62 46.4767 150.729 46.6841 150.885 46.8588C151.168 47.1766 151.553 47.3204 151.928 47.4939C152.244 47.6405 152.421 47.8721 151.933 47.8577C151.415 47.8425 150.794 47.4425 150.512 47.0173C150.246 47.2873 149.846 47.4348 149.545 47.6761C149.272 47.8951 149.021 48.0117 148.729 48.1817C149.549 48.6569 149.982 49.509 150.891 49.8479C151.628 50.1228 152.38 50.3131 153.152 50.0396C153.422 49.9439 153.653 49.8109 153.803 49.5615C153.898 49.4042 153.925 49.2143 154.045 49.0708C154.22 49.2233 154.224 49.482 154.214 49.6943C154.76 49.293 155.208 48.9661 155.298 48.2483C155.373 47.6512 155.12 47.0932 155.088 46.5019C154.67 46.7763 154.327 47.063 153.853 47.2166C153.436 47.3516 153.46 47.0906 153.763 46.8932C154.123 46.6578 154.503 46.5221 154.831 46.2242C155.184 45.9033 155.306 45.8248 155.353 45.3286C154.439 45.6519 153.745 45.7746 152.748 45.6263C151.865 45.4948 151.054 44.6629 151.002 43.7628C150.404 43.8892 149.997 43.9041 149.648 43.3377C149.335 42.8304 149.38 42.3281 149.402 41.7641C148.63 42.2921 148.069 42.4856 147.144 42.4624C146.402 42.4438 145.591 42.3855 144.907 42.0853C144.223 41.7853 143.861 41.1331 143.559 40.4761C143.166 39.6205 142.697 38.664 143.083 37.7194C142.405 37.6955 141.677 37.1746 141.395 36.554C141.331 36.4134 141.325 36.1066 141.246 36.0038C141.147 35.8759 140.897 35.9206 140.698 35.908C140.451 35.8925 140.139 35.8731 140.046 35.5988C140.012 35.4977 140.027 35.2059 140.144 35.1404C140.315 35.0441 140.724 35.4535 141.027 35.3445C141.395 35.2122 141.359 34.798 141.652 34.619C142.016 34.3971 141.978 34.9174 141.922 35.166C141.84 35.5292 141.507 35.6875 141.612 36.0542C141.676 36.2771 141.776 36.4897 141.921 36.6715C142.181 36.9976 142.553 37.1758 142.939 37.3061C143.086 37.3556 143.489 37.403 143.524 37.5955C143.533 37.6429 143.362 37.9839 143.346 38.0873C143.305 38.3595 143.295 38.6177 143.344 38.8892C143.481 39.6449 143.858 40.5449 144.316 41.1632C144.62 41.5732 145.11 41.7754 145.586 41.9147C146.625 42.2191 147.716 42.2794 148.7 41.7941C149.144 41.5746 149.411 41.2943 149.762 40.959C149.872 40.8545 150.104 40.5966 150.172 40.8925C150.209 41.0516 149.895 41.3678 149.841 41.5187C149.689 41.9455 149.636 42.7151 149.979 43.0768C150.287 43.403 150.782 43.2376 151.168 43.3308C151.54 43.4208 151.394 43.7846 151.504 44.1062C151.612 44.4192 151.837 44.7283 152.103 44.9251C152.621 45.3071 153.425 45.3869 154.044 45.3305C154.635 45.2767 155.448 44.8638 155.573 44.2178C155.662 43.759 155.499 43.435 155.183 43.143C155.15 43.2785 155.028 43.6396 154.884 43.7056C154.598 43.8363 154.631 43.5521 154.688 43.3594C154.804 42.9633 154.974 42.5648 155.131 42.1809C155.525 41.2223 155.679 40.2922 155.531 39.2522C155.446 38.6485 155.247 37.968 154.987 37.4278C154.894 37.2332 154.825 37.0431 154.703 36.8636C154.627 36.7521 154.166 36.3896 154.166 36.2879C154.166 36.1436 154.482 36.1574 154.562 36.1757C154.838 36.2392 154.875 36.4941 155.05 36.6802C155.14 36.399 155.273 36.134 155.248 35.8352C155.22 35.5106 155.008 34.9193 154.703 34.7493C154.515 34.6449 154.604 34.6836 154.408 34.7569C154.271 34.8079 154.138 34.902 154.01 34.9724C153.72 35.1332 153.431 35.254 153.117 35.3582C152.961 35.4101 152.814 35.4399 152.664 35.501C152.551 35.5469 152.383 35.7035 152.252 35.6908C151.957 35.662 152.128 35.4847 152.289 35.3696C152.496 35.221 152.711 35.1419 152.954 35.0503C154.208 34.577 155.279 33.8673 155.279 32.4086C155.28 31.3749 155.406 30.0946 155.024 29.1166C154.845 28.6584 154.659 28.1885 154.443 27.7466C154.269 27.3908 153.801 26.9127 153.781 26.5085C153.987 26.4497 154.287 26.7421 154.361 26.9063C155.406 26.3681 155.308 24.8592 155.234 23.8952C155.205 23.5115 155.06 23.2301 154.948 22.8772C154.881 22.6691 154.868 22.3814 154.874 22.1648C154.88 21.9268 155.057 21.6478 155.034 21.4305C154.981 20.9121 153.895 20.5548 153.476 20.4251C153.048 20.2927 152.603 20.2465 152.16 20.3194C151.563 20.4175 150.963 20.834 150.345 20.7331C150.327 20.4616 150.947 20.3859 151.117 20.3311C151.445 20.2253 151.766 20.1306 152.11 20.0709C152.497 20.0039 152.884 19.9616 153.268 20.0578C153.61 20.1433 153.932 20.271 154.244 20.4288C154.766 20.694 154.956 20.4381 155.236 20.0017C155.686 19.3025 155.38 18.8377 154.987 18.2141C154.742 17.8255 154.505 17.5052 154.122 17.2284C153.908 17.0735 153.635 16.9782 153.432 16.8132C153.275 16.6852 153.054 16.2945 153.363 16.2998C153.501 16.3022 153.825 16.6402 153.941 16.7223C154.225 16.9223 154.5 17.1262 154.76 17.3579C155.059 16.7751 155.068 15.9887 154.837 15.3842C154.575 14.7019 153.954 14.5569 153.328 14.3379C153.428 14.3729 153.277 14.323 153.328 14.3379L153.328 14.3379Z" fill="black"/>
    <path d="M149.449 18.8836C149.21 19.3378 148.823 19.4727 148.673 20.0196C148.55 20.4694 148.519 20.994 148.918 21.3103C149.124 21.4729 149.735 21.7874 150 21.7705C150.148 21.7611 150.572 21.2143 150.711 21.3192C150.917 21.4748 150.353 22.0408 150.296 22.1531C150.19 22.3638 150.164 22.7168 149.987 22.8783C149.533 23.2913 149.858 22.2039 149.912 22.0516C149.463 22.0198 149.053 22.0312 148.673 21.7399C148.501 21.6084 148.455 21.4656 148.277 21.4223C148.109 21.3813 147.866 21.4694 147.682 21.4487C147.403 21.4173 147.135 21.3564 147.056 21.0528C146.968 20.7138 147.124 20.8255 147.376 20.8991C147.652 20.98 147.933 20.999 148.221 21.0234C148.157 20.6853 148.161 20.1846 148.254 19.8515C148.355 19.4919 149.008 18.7195 149.449 18.8836C149.397 18.9826 149.383 18.8591 149.449 18.8836Z" fill="black"/>
    <path d="M153.123 21.367C153.08 21.5572 152.938 21.6933 152.868 21.8696C152.807 22.0206 152.806 22.1955 152.733 22.3405C152.918 22.3327 153.486 22.2314 153.632 22.4278C153.855 22.7256 153.216 22.6083 153.088 22.6016C152.484 22.5701 151.691 22.6484 151.202 23.0307C150.655 23.459 150.349 24.1389 150.048 24.743C149.823 25.1956 149.507 25.4643 149.176 25.8244C148.898 26.1265 148.846 26.4706 148.829 26.8568C148.814 27.169 148.941 27.474 149.111 27.7322C149.288 28.0016 149.458 28.1231 149.278 28.4403C149.074 28.8024 148.878 29.0106 149.077 29.4588C149.174 29.6787 149.307 29.8299 149.516 29.9486C149.769 30.0916 150.078 30.1793 150.364 30.2049C150.475 30.2149 150.689 30.2519 150.794 30.2078C150.93 30.1505 150.981 29.9836 151.071 29.8561C151.2 29.6745 151.381 29.4949 151.598 29.4243C151.681 29.3974 151.793 29.3269 151.88 29.394C152.048 29.5247 151.785 29.7079 151.675 29.8081C151.434 30.0281 151.26 30.2116 151.17 30.5395C151.086 30.8492 151.17 31.1448 151.146 31.4602C151.761 31.4433 152.147 31.6726 152.382 32.2713C153.119 32.0094 154.381 31.6943 154.693 32.7659C154.883 33.4214 154.405 33.1164 154.172 32.8161C153.889 32.4524 153.614 32.2003 153.091 32.3599C152.868 32.428 152.564 32.7751 152.344 32.7654C152.15 32.7568 152.015 32.4818 151.919 32.34C151.533 31.7722 151.103 31.64 150.464 31.9506C149.881 32.2345 149.416 32.9369 149.312 33.5717C149.247 33.9713 149.335 34.5188 149.468 34.8991C149.503 35.0005 149.842 35.4668 149.78 35.5688C149.663 35.7593 149.316 35.554 149.241 35.4425C149.168 35.3324 149.166 35.1794 149.135 35.0544C149.1 34.914 149.058 34.7877 149.034 34.6422C149.01 34.4903 149.07 34.091 148.983 33.9914C148.864 33.8548 148.181 33.8078 147.98 33.8214C147.606 33.8466 147.166 34.0007 146.846 34.1896C146.644 34.3087 146.427 34.6233 146.199 34.4598C146.048 34.3523 145.993 34.0268 145.919 33.869C145.783 33.5772 145.608 33.3391 145.312 33.1955C144.962 33.0258 144.57 33.088 144.223 32.9201C144.416 32.6478 145.114 32.8216 145.365 32.8979C145.91 33.0636 146.292 33.481 146.421 34.0414C146.96 33.8117 147.576 33.5341 148.176 33.5285C148.459 33.5259 148.704 33.6266 148.975 33.6887C149.001 32.6378 149.84 31.6906 150.875 31.5075C150.779 31.1721 150.806 30.8695 150.798 30.5141C150.053 30.6387 149.132 30.4391 148.717 29.7463C148.387 29.1956 148.493 28.4774 149.012 28.0987C148.628 27.7185 148.15 26.8403 148.536 26.3223C147.995 26.2998 145.525 26.2169 146.4 25.0989C146.76 25.3608 146.903 25.6443 147.372 25.7985C148.094 26.0359 148.568 25.8898 149.138 25.3812C149.832 24.7616 150.056 23.769 150.677 23.0883C151.154 22.5656 151.812 22.3482 152.507 22.3482C152.101 22.3058 152.416 21.8376 152.557 21.6298C152.598 21.5699 153.146 20.989 153.122 21.3671C153.129 21.2688 153.074 21.5804 153.122 21.3671L153.123 21.367Z" fill="black"/>
    <path d="M146.261 21.3901C146.618 21.5033 146.425 22.0243 146.358 22.2494C146.286 22.4954 146.236 22.7874 146.261 23.0458C146.294 23.3876 146.62 23.729 146.62 24.0554C146.62 24.3689 146.145 24.4421 145.902 24.6188C144.794 25.4261 144.023 26.9963 144.006 28.3456C143.988 29.7854 144.967 31.0799 146.258 31.6254C146.371 31.6733 146.822 31.836 146.647 32.0132C146.503 32.1596 146.023 31.9362 145.891 31.8756C145.499 31.6952 145.144 31.4148 144.851 31.0996C144.753 30.9939 144.582 30.6727 144.451 30.6332C144.331 30.5973 143.918 30.8549 143.816 30.9278C143.625 31.064 143.258 31.9151 143.002 31.8128C142.775 31.722 143.11 31.0792 143.211 30.9637C143.451 30.6889 143.882 30.4232 144.248 30.3763C143.724 29.7885 143.631 28.637 143.714 27.9016C143.725 27.795 143.804 27.602 143.77 27.4944C143.732 27.3761 143.428 27.1867 143.329 27.0933C143.255 27.0239 143.186 26.937 143.103 26.8786C142.975 26.7886 142.796 26.7261 142.648 26.6914C142.485 26.6536 141.946 26.7142 141.93 26.4367C142.759 26.1849 143.351 26.5007 143.865 27.1332C143.956 26.7731 144.102 26.3836 144.282 26.0601C144.413 25.8257 144.733 25.6066 144.811 25.3559C144.877 25.1473 144.855 25.2371 144.688 25.0349C144.594 24.9212 144.531 24.7915 144.46 24.663C144.39 24.5343 144.289 24.4069 144.25 24.2632C144.17 23.974 144.294 23.9829 143.959 23.9554C143.608 23.9266 143.367 23.9262 143.056 24.1205C142.915 24.2085 142.522 24.5514 142.457 24.125C142.413 23.8352 143.064 23.7368 143.262 23.6844C143.591 23.5976 143.863 23.5814 144.204 23.5912C144.228 23.2629 144.157 22.7978 144.337 22.5011C144.522 22.1966 144.928 21.8102 145.291 21.8085C145.299 22.0183 145.075 22.1188 144.949 22.2565C144.791 22.43 144.719 22.6132 144.661 22.8419C144.443 23.7178 144.675 24.2242 145.113 24.9493C145.345 24.6632 145.624 24.4117 145.838 24.112C145.949 23.9554 146.021 23.8319 146.02 23.6638C146.019 23.5376 145.949 23.3873 145.938 23.2549C145.896 22.7245 145.957 21.8516 146.261 21.39C146.354 21.4193 146.121 21.6028 146.261 21.39V21.3901Z" fill="black"/>
    <path d="M152.962 24.2665C153.448 24.3271 152.777 24.6329 152.689 24.6993C152.552 24.8022 152.443 24.9783 152.327 25.111C152.271 25.1742 152.036 25.3831 152.028 25.4666C152.016 25.5916 152.326 25.9283 152.382 26.0505C152.693 26.7379 152.637 27.5236 152.268 28.1411C152.699 28.1573 153.069 28.1265 153.47 28.3375C153.628 28.4205 154.553 29.1192 154.067 29.181C153.894 29.2029 153.623 28.8665 153.49 28.7713C153.287 28.626 153.056 28.476 152.808 28.4201C152.597 28.3724 151.373 28.5882 151.327 28.4653C151.448 28.2001 151.644 28.3309 151.834 28.2164C152.008 28.1117 151.925 28.1653 151.988 27.9528C152.016 27.8584 152.037 27.7598 152.065 27.6647C152.2 27.2176 152.219 26.8776 152.101 26.4196C152.047 26.2112 151.975 25.9963 151.847 25.8204C151.655 25.5577 151.508 25.6668 151.211 25.6407C150.891 25.6124 150.611 25.4449 150.747 25.0338C150.981 25.0483 151.158 25.1446 151.398 25.1006C151.616 25.0607 151.825 24.9284 152.007 24.8073C152.26 24.6393 152.62 24.2305 152.962 24.2665C153.113 24.2852 152.881 24.2579 152.962 24.2665Z" fill="black"/>
    <path d="M151.123 35.854C151.06 36.1753 150.893 36.3907 150.955 36.729C150.983 36.8776 151.038 37.0756 151.144 37.1897C151.307 37.3657 151.377 37.3099 151.594 37.2836C151.883 37.2487 152.165 37.1977 152.413 37.3854C152.591 37.5192 152.624 37.6533 152.855 37.7349C152.951 37.769 154.117 37.989 153.502 38.1589C153.184 38.2465 152.572 37.9531 152.297 37.8271C152.086 37.7302 151.988 37.6528 151.766 37.6882C151.658 37.7053 151.568 37.7667 151.469 37.806C151.426 37.8232 151.392 37.8595 151.347 37.8744C151.101 37.9561 150.823 37.9285 150.568 37.9174C149.888 37.888 149.307 37.8724 148.734 37.4861C148.389 37.2534 147.97 37.0586 148.129 36.5445C148.358 36.5731 148.493 36.8112 148.643 36.9573C148.848 37.1566 149.053 37.27 149.323 37.3587C149.753 37.5003 150.351 37.669 150.806 37.5586C150.506 37.2222 150.486 36.8726 150.514 36.4231C150.526 36.2416 150.545 36.1029 150.635 35.9444C150.701 35.8296 151.215 35.5049 151.123 35.854C151.144 35.776 151.102 35.9611 151.123 35.854Z" fill="black"/>
    <path d="M146.18 36.4013C146.175 37.0839 145.603 37.8031 145.793 38.4914C146.027 39.3384 147.153 39.3361 147.782 38.9635C147.962 38.857 147.918 38.7912 148.104 38.8825C148.225 38.9414 148.336 39.1057 148.442 39.1901C148.914 39.5638 149.501 39.7325 150.089 39.8136C150.817 39.9142 151.425 39.8208 152.109 39.5377C152.382 39.4243 152.614 39.2803 152.838 39.0877C152.956 38.9865 153.222 38.622 153.396 38.6894C154 38.9237 152.348 39.7498 152.316 39.7923C152.242 39.8886 152.219 40.3613 152.255 40.5206C152.325 40.832 152.592 40.9162 152.841 41.0718C153.011 41.1777 153.395 41.3381 153.13 41.514C152.931 41.6455 152.363 41.4964 152.201 41.3554C151.803 41.0079 151.888 40.4637 151.942 40.0024C150.732 40.3353 149.232 40.2655 148.131 39.5703C148.074 39.5211 148.015 39.473 147.956 39.4259C147.897 39.3464 147.838 39.3628 147.779 39.4753C147.73 39.4865 147.653 39.5385 147.605 39.5604C147.371 39.6688 147.135 39.6786 146.882 39.6708C146.396 39.6558 145.914 39.5269 145.603 39.1313C145.29 38.7341 145.405 38.1635 145.521 37.698C145.642 37.2163 145.656 36.5795 146.083 36.2468C146.115 36.2983 146.148 36.3498 146.18 36.4013C146.179 36.5806 146.16 36.343 146.18 36.4013H146.18Z" fill="black"/>
    </svg>
    