<svg width="309" height="60" viewBox="0 0 309 60" fill="none" xmlns="http://www.w3.org/2000/svg">
    <path d="M4.704 48V14.4H9.36L29.904 41.904L29.136 42.336C29.008 41.536 28.896 40.672 28.8 39.744C28.704 38.784 28.608 37.776 28.512 36.72C28.448 35.632 28.384 34.496 28.32 33.312C28.288 32.096 28.256 30.832 28.224 29.52C28.192 28.208 28.176 26.848 28.176 25.44V14.4H33.36V48H28.608L8.4 21.504L8.928 20.832C9.088 22.784 9.216 24.448 9.312 25.824C9.44 27.168 9.536 28.32 9.6 29.28C9.696 30.208 9.76 30.976 9.792 31.584C9.824 32.16 9.84 32.64 9.84 33.024C9.872 33.408 9.888 33.744 9.888 34.032V48H4.704ZM42.7665 48V14.4H63.9345V19.392H47.9505V43.008H63.9345V48H42.7665ZM45.1185 33.264V28.272H61.2945V33.264H45.1185ZM85.3069 48.288C82.7149 48.288 80.3949 47.728 78.3469 46.608C76.2989 45.456 74.6829 43.888 73.4989 41.904C72.3469 39.888 71.7709 37.616 71.7709 35.088V14.352H76.9549V34.656C76.9549 36.288 77.3389 37.76 78.1069 39.072C78.8749 40.352 79.8829 41.376 81.1309 42.144C82.4109 42.912 83.8029 43.296 85.3069 43.296C86.9069 43.296 88.3469 42.912 89.6269 42.144C90.9389 41.376 91.9789 40.352 92.7469 39.072C93.5149 37.76 93.8989 36.288 93.8989 34.656V14.352H98.8429V35.088C98.8429 37.616 98.2509 39.888 97.0669 41.904C95.9149 43.888 94.3149 45.456 92.2669 46.608C90.2189 47.728 87.8989 48.288 85.3069 48.288ZM107.782 48V14.4H122.086C124.006 14.4 125.766 14.88 127.366 15.84C128.998 16.768 130.294 18.048 131.254 19.68C132.214 21.28 132.694 23.088 132.694 25.104C132.694 26.928 132.214 28.624 131.254 30.192C130.294 31.76 129.014 33.024 127.414 33.984C125.814 34.912 124.038 35.376 122.086 35.376H112.966V48H107.782ZM127.75 48L119.206 32.832L124.534 31.632L134.038 48.048L127.75 48ZM112.966 30.384H122.566C123.494 30.384 124.326 30.16 125.062 29.712C125.798 29.232 126.374 28.592 126.79 27.792C127.206 26.96 127.414 26.048 127.414 25.056C127.414 23.936 127.142 22.96 126.598 22.128C126.086 21.264 125.35 20.592 124.39 20.112C123.462 19.632 122.406 19.392 121.222 19.392H112.966V30.384ZM181.517 48V14.4H186.173L206.717 41.904L205.949 42.336C205.821 41.536 205.709 40.672 205.613 39.744C205.517 38.784 205.421 37.776 205.325 36.72C205.261 35.632 205.197 34.496 205.133 33.312C205.101 32.096 205.069 30.832 205.036 29.52C205.005 28.208 204.989 26.848 204.989 25.44V14.4H210.173V48H205.421L185.213 21.504L185.741 20.832C185.901 22.784 186.029 24.448 186.125 25.824C186.253 27.168 186.349 28.32 186.413 29.28C186.509 30.208 186.573 30.976 186.605 31.584C186.637 32.16 186.653 32.64 186.653 33.024C186.685 33.408 186.701 33.744 186.701 34.032V48H181.517ZM233.643 48.48C231.275 48.48 229.083 48.048 227.067 47.184C225.083 46.32 223.339 45.12 221.835 43.584C220.363 42.016 219.211 40.192 218.379 38.112C217.579 36 217.179 33.696 217.179 31.2C217.179 28.704 217.579 26.416 218.379 24.336C219.211 22.224 220.363 20.4 221.835 18.864C223.339 17.296 225.083 16.08 227.067 15.216C229.083 14.352 231.275 13.92 233.643 13.92C236.011 13.92 238.187 14.352 240.171 15.216C242.187 16.08 243.931 17.296 245.403 18.864C246.907 20.432 248.059 22.272 248.859 24.384C249.691 26.464 250.107 28.736 250.107 31.2C250.107 33.664 249.691 35.952 248.859 38.064C248.059 40.144 246.907 41.968 245.403 43.536C243.931 45.104 242.187 46.32 240.171 47.184C238.187 48.048 236.011 48.48 233.643 48.48ZM233.643 43.44C235.275 43.44 236.763 43.136 238.107 42.528C239.483 41.92 240.667 41.072 241.659 39.984C242.651 38.864 243.419 37.568 243.963 36.096C244.539 34.592 244.827 32.96 244.827 31.2C244.827 29.44 244.539 27.824 243.963 26.352C243.419 24.848 242.651 23.552 241.659 22.464C240.667 21.344 239.483 20.48 238.107 19.872C236.763 19.264 235.275 18.96 233.643 18.96C232.011 18.96 230.507 19.264 229.131 19.872C227.787 20.48 226.603 21.328 225.579 22.416C224.587 23.504 223.819 24.8 223.275 26.304C222.731 27.776 222.459 29.408 222.459 31.2C222.459 32.96 222.731 34.592 223.275 36.096C223.819 37.6 224.587 38.896 225.579 39.984C226.603 41.072 227.787 41.92 229.131 42.528C230.507 43.136 232.011 43.44 233.643 43.44ZM262.057 48V19.392H252.649V14.4H276.937V19.392H267.241V48H262.057ZM283.329 48V14.4H304.497V19.392H288.513V43.008H304.497V48H283.329ZM285.681 33.264V28.272H301.857V33.264H285.681Z" fill="#D9D9D9"/>
    <path d="M157.525 13.0928C157.721 12.9472 158.04 13.0136 158.263 13.0257C158.576 13.0428 158.886 13.0448 159.174 13.1836C159.302 13.2449 159.374 13.3337 159.488 13.4047C159.629 13.492 159.663 13.4869 159.847 13.5029C160.328 13.5447 160.826 13.746 161.241 13.9853C161.438 14.0988 161.647 14.4464 161.861 14.4855C162.092 14.5278 162.46 14.1998 162.678 14.1162C163.969 13.6213 165.153 14.0092 165.918 15.1569C166.185 15.5568 166.356 16.0187 166.348 16.5038C166.344 16.7594 166.176 17.0642 166.197 17.3039C166.231 17.7112 166.702 17.5878 166.982 17.6306C167.275 17.6754 167.514 17.7873 167.71 18.0224C168.063 18.4467 168.122 19.1691 168.161 19.7012C168.2 20.2416 168.259 20.7927 168.68 21.1519C169.136 21.5415 169.586 21.8576 169.899 22.3789C170.391 23.1977 170.423 23.9368 170.385 24.8666C170.368 25.2908 170.259 25.6876 170.16 26.0977C170.08 26.4307 170.112 26.3822 170.367 26.5827C170.621 26.7818 170.759 26.9856 170.885 27.2762C171.021 27.5895 171.107 27.8252 171.104 28.1634C171.103 28.3364 171.096 28.5094 171.087 28.6821C171.081 28.7961 171.073 28.91 171.064 29.0238C171.136 29.0643 171.207 29.1059 171.277 29.1485C171.492 29.4248 171.695 29.6618 171.845 29.9764C172.014 30.3313 172.18 30.8103 172.239 31.2109C172.353 31.9854 172.057 32.343 171.423 32.6922C171.96 33.3437 172.397 34.214 172.29 35.0857C172.227 35.5919 172.068 36.0096 171.732 36.3946C171.563 36.5888 171.389 36.7711 171.2 36.9462C171.059 37.0775 170.674 37.353 170.606 37.5431C170.535 37.7411 170.703 38.096 170.672 38.33C170.647 38.5196 170.518 38.7041 170.504 38.8856C170.492 39.0595 170.639 39.322 170.672 39.5606C170.706 39.8061 170.774 40.0388 170.801 40.2832C170.894 41.1032 170.67 41.7041 170.219 42.376C170.014 42.682 169.846 43.0037 169.609 43.2851C169.257 43.7029 168.963 43.9034 168.456 44.0818C168.325 44.128 168.115 44.1622 167.996 44.225C167.658 44.4041 167.753 45.1464 167.575 45.5163C167.385 45.9131 167.264 46.3481 166.957 46.6803C166.724 46.9332 166.423 47.02 166.128 47.1782C165.512 47.5096 164.864 47.5837 164.169 47.4996C163.764 47.4505 163.065 47.153 162.744 47.3354C162.609 47.4125 162.459 47.6383 162.338 47.7485C162.164 47.9073 161.981 48.0605 161.845 48.2512C161.63 48.5522 161.464 48.7272 161.107 48.915C160.668 49.1459 160.086 49.4403 159.597 49.5253C159.108 49.6103 158.482 49.632 158.001 49.5084C157.887 49.479 157.784 49.4396 157.679 49.3836C157.509 49.2933 157.388 49.0669 157.241 48.9941C157.223 48.9856 157.053 49.0443 156.998 49.0263C156.859 48.9808 156.739 48.9154 156.612 48.844C156.385 48.7175 156.173 48.5697 156.013 48.3592C155.648 47.8788 155.594 47.3055 155.667 46.7197C155.678 46.629 155.704 46.5402 155.717 46.4489C155.731 46.3486 155.706 46.2887 155.743 46.1826C155.758 46.1397 155.891 46.0517 155.897 46.0146C155.945 45.7569 155.812 45.3514 155.773 45.0959C155.678 44.4829 155.4 43.9188 155.382 43.2941C155.373 43.0064 155.375 42.6591 155.483 42.3874C155.599 42.0977 155.965 41.777 155.937 41.4593C155.911 41.1695 155.652 40.8403 155.551 40.5577C155.346 39.9889 155.438 39.3552 155.448 38.7631C155.458 38.2249 155.534 37.8925 155.656 37.39C155.743 37.0299 155.835 36.7206 155.96 36.3753C156.066 36.0849 156.056 36.0683 155.873 35.8163C155.787 35.6972 155.702 35.5598 155.666 35.4153C155.505 34.7601 155.912 33.8102 156.401 33.365C156.184 33.1303 156.008 32.9295 155.863 32.6291C155.632 32.1547 155.737 31.5508 155.739 31.024C155.742 30.3182 155.716 29.599 155.778 28.8947C155.793 28.7254 155.83 28.5805 155.872 28.4181C155.93 28.1941 155.992 27.9862 156.086 27.7716C156.2 27.5113 156.298 27.2476 156.409 26.9863C156.512 26.7444 156.666 26.4967 156.754 26.2541C156.126 26.1017 155.75 24.9905 155.732 24.4179C155.714 23.8248 155.694 23.1595 155.775 22.5704C155.793 22.4371 155.839 22.3084 155.876 22.1795C155.932 21.9839 155.973 21.7904 156.015 21.5915C156.067 21.3434 156.101 21.3448 155.968 21.1981C155.868 21.0874 155.788 21.1378 155.732 20.9708C155.691 20.8493 155.745 20.571 155.782 20.4463C155.866 20.1653 156.065 20.0099 156.294 19.841C156.03 19.7663 155.644 19.2383 155.521 19.0055C155.338 18.6622 155.384 18.2283 155.539 17.8842C155.658 17.6213 155.826 17.3775 155.97 17.1278C156.043 17.0011 156.185 16.8376 156.229 16.7015C156.294 16.4987 156.155 16.3392 156.067 16.1141C155.869 15.6135 155.878 14.8083 156.035 14.3056C156.103 14.0874 156.261 13.8444 156.438 13.7007C156.762 13.4375 157.215 13.3397 157.525 13.0929M157.978 13.3381C157.352 13.5571 156.73 13.7021 156.469 14.3844C156.238 14.9889 156.246 15.7753 156.546 16.3581C156.805 16.1264 157.081 15.9225 157.365 15.7225C157.481 15.6404 157.805 15.3024 157.943 15.3C158.251 15.2946 158.03 15.6854 157.874 15.8134C157.671 15.9783 157.398 16.0737 157.184 16.2286C156.8 16.5054 156.563 16.8257 156.318 17.2143C155.925 17.8378 155.62 18.3027 156.07 19.0019C156.35 19.4383 156.539 19.6942 157.062 19.429C157.373 19.2712 157.696 19.1435 158.037 19.058C158.422 18.9618 158.808 19.0041 159.195 19.0711C159.54 19.1307 159.861 19.2255 160.189 19.3313C160.358 19.3861 160.979 19.4618 160.961 19.7333C160.343 19.8342 159.743 19.4176 159.146 19.3196C158.703 19.2467 158.257 19.2929 157.829 19.4253C157.41 19.555 156.325 19.9122 156.271 20.4307C156.249 20.648 156.426 20.927 156.432 21.165C156.438 21.3816 156.425 21.6693 156.358 21.8774C156.245 22.2303 156.101 22.5116 156.072 22.8954C155.998 23.8594 155.9 25.3683 156.945 25.9065C157.019 25.7423 157.319 25.4498 157.524 25.5087C157.504 25.9129 157.036 26.391 156.863 26.7467C156.647 27.1887 156.461 27.6585 156.282 28.1168C155.899 29.0948 156.026 30.3751 156.026 31.4088C156.027 32.8675 157.098 33.5772 158.352 34.0505C158.595 34.1421 158.81 34.2211 159.017 34.3698C159.178 34.4849 159.349 34.6622 159.054 34.691C158.923 34.7037 158.754 34.5471 158.642 34.5012C158.492 34.4401 158.345 34.4103 158.188 34.3584C157.875 34.2541 157.586 34.1334 157.295 33.9726C157.168 33.9022 157.035 33.8081 156.898 33.7571C156.702 33.6838 156.79 33.6451 156.603 33.7495C156.297 33.9195 156.085 34.5107 156.058 34.8354C156.032 35.1342 156.166 35.3992 156.256 35.6803C156.43 35.4943 156.468 35.2394 156.744 35.1759C156.824 35.1576 157.139 35.1438 157.14 35.2881C157.14 35.3898 156.679 35.7522 156.603 35.8638C156.481 36.0433 156.412 36.2334 156.318 36.428C156.059 36.9682 155.86 37.6487 155.774 38.2524C155.627 39.2924 155.781 40.2225 156.175 41.1811C156.332 41.565 156.502 41.9634 156.618 42.3596C156.675 42.5523 156.708 42.8365 156.422 42.7058C156.278 42.6398 156.155 42.2787 156.123 42.1431C155.807 42.4352 155.643 42.7592 155.733 43.218C155.858 43.864 156.671 44.2769 157.262 44.3307C157.881 44.3871 158.685 44.3073 159.202 43.9252C159.469 43.7285 159.694 43.4194 159.802 43.1064C159.912 42.7848 159.766 42.421 160.138 42.331C160.523 42.2378 161.019 42.4032 161.327 42.077C161.669 41.7153 161.617 40.9457 161.464 40.5189C161.41 40.368 161.097 40.0518 161.133 39.8927C161.201 39.5968 161.434 39.8546 161.543 39.9592C161.895 40.2945 162.161 40.5748 162.606 40.7943C163.59 41.2796 164.681 41.2192 165.72 40.9149C166.196 40.7756 166.686 40.5734 166.99 40.1633C167.447 39.5451 167.825 38.645 167.962 37.8894C168.011 37.6179 168.001 37.3596 167.959 37.0875C167.944 36.9841 167.773 36.6431 167.782 36.5957C167.817 36.4032 168.22 36.3558 168.367 36.3063C168.753 36.176 169.125 35.9978 169.385 35.6717C169.53 35.4899 169.63 35.2773 169.694 35.0544C169.799 34.6877 169.466 34.5293 169.384 34.1662C169.327 33.9176 169.29 33.3973 169.653 33.6192C169.946 33.7982 169.911 34.2124 170.278 34.3447C170.582 34.4537 170.991 34.0443 171.162 34.1405C171.278 34.2061 171.294 34.4979 171.26 34.599C171.167 34.8733 170.855 34.8927 170.608 34.9082C170.409 34.9208 170.159 34.8761 170.06 35.004C169.981 35.1069 169.975 35.4136 169.911 35.5542C169.629 36.1748 168.901 36.6956 168.222 36.7196C168.608 37.6642 168.14 38.6208 167.747 39.4763C167.445 40.1333 167.083 40.7855 166.399 41.0854C165.714 41.3857 164.904 41.444 164.162 41.4626C163.236 41.4858 162.676 41.2923 161.904 40.7643C161.926 41.3283 161.971 41.8306 161.658 42.3379C161.309 42.9043 160.902 42.8894 160.304 42.763C160.252 43.6631 159.441 44.495 158.558 44.6265C157.561 44.7749 156.867 44.6521 155.952 44.3288C156 44.825 156.122 44.9034 156.475 45.2244C156.803 45.5223 157.182 45.658 157.543 45.8934C157.846 46.0908 157.87 46.3518 157.453 46.2168C156.979 46.0632 156.636 45.7764 156.218 45.502C156.186 46.0934 155.932 46.6514 156.008 47.2485C156.098 47.9663 156.545 48.2932 157.091 48.6945C157.082 48.4822 157.086 48.2234 157.261 48.071C157.381 48.2145 157.408 48.4044 157.503 48.5617C157.653 48.811 157.883 48.9441 158.154 49.0398C158.925 49.3133 159.678 49.123 160.415 48.8481C161.324 48.5092 161.757 47.657 162.577 47.1819C162.284 47.0119 162.033 46.8953 161.761 46.6763C161.46 46.435 161.06 46.2875 160.793 46.0175C160.512 46.4426 159.891 46.8426 159.373 46.8579C158.885 46.8723 159.062 46.6406 159.378 46.4941C159.753 46.3206 160.138 46.1767 160.421 45.859C160.576 45.6843 160.686 45.4768 160.749 45.2517C160.832 44.9514 160.799 44.3685 161.077 44.1784C161.33 44.4988 161.178 44.8968 161.08 45.2345C161.018 45.4499 161.012 45.4989 161.122 45.6648C161.149 45.7061 161.409 45.9652 161.459 45.9719C161.582 45.9885 162.073 45.6325 162.189 45.5268C162.308 45.4188 162.429 45.2536 162.482 45.099C162.679 44.5132 162.441 44.0843 162.15 43.6014C162.058 43.4495 161.851 43.1045 162.198 43.1074C162.378 43.1088 162.626 43.426 162.765 43.5199C162.967 43.6555 163.178 43.7273 163.415 43.7782C163.542 43.8055 163.678 43.8356 163.808 43.8365C163.893 43.8371 164.244 43.7227 164.302 43.7685C164.422 43.8637 164.13 44.1601 164.025 44.2098C163.883 44.277 163.655 44.2578 163.501 44.2468C163.421 44.2525 163.341 44.2484 163.262 44.2345C163.117 44.133 163.046 44.1763 163.05 44.3642C162.829 44.7229 162.897 45.1904 162.657 45.5574C162.437 45.8949 162.174 46.1644 161.753 46.2321C162.814 47.2191 164.609 47.4203 165.911 46.8842C166.432 46.6698 166.729 46.3705 167.001 45.88C167.297 45.3448 167.332 44.8252 167.503 44.2494C166.981 44.2524 166.606 44.2317 166.098 44.1045C166.143 44.7405 165.941 45.2479 165.309 45.4954C165.092 45.5804 163.594 45.7717 163.764 45.2861C163.83 45.0979 164.386 45.1614 164.517 45.16C164.866 45.1562 165.168 45.1174 165.44 44.8715C165.668 44.6658 165.904 44.2594 165.704 43.9957C165.536 43.773 165.149 43.5593 164.933 43.3636C164.804 43.2462 164.503 43.0022 164.458 42.8145C164.323 42.2519 164.94 42.8682 165.051 42.9812C165.435 43.3714 165.95 43.7409 166.496 43.8429C167.683 44.0643 168.89 43.7842 169.6 42.752C170.328 41.6932 170.719 40.6544 170.2 39.4191C170.005 39.5446 168.382 39.9578 168.392 39.4416C168.715 39.3248 169.078 39.4306 169.41 39.3253C169.803 39.2007 170.105 38.8567 170.205 38.4586C170.297 38.0937 170.159 37.8598 170.129 37.5103C170.099 37.1694 170.166 37.1822 170.471 37.0619C171.49 36.6598 172.112 35.3861 171.876 34.3383C171.82 34.0903 171.738 33.8001 171.629 33.5737C171.563 33.4372 171.468 33.3117 171.385 33.1865C171.24 32.9709 171.264 32.9257 171.062 32.934C170.764 32.9462 170.463 33.1723 170.166 33.2071C169.87 33.2417 169.725 33.1497 169.495 33.348C168.592 34.1297 168.308 35.4106 166.943 35.5777C166.732 35.6036 165.87 35.6215 166.442 35.3118C166.93 35.0476 167.486 35.1166 167.95 34.737C168.226 34.5119 168.397 34.2066 168.592 33.9148C168.698 33.7563 168.835 33.5918 168.908 33.4141C168.966 33.2724 168.927 33.0255 169.03 32.9207C169.224 32.7244 169.709 32.9416 169.941 32.9225C170.286 32.8942 170.684 32.6784 170.987 32.5107C171.367 32.3006 171.809 31.9198 171.879 31.4722C171.968 30.907 171.541 29.9179 171.089 29.5774C170.839 29.3893 170.85 29.5154 170.676 29.737C170.58 29.8586 170.482 29.9913 170.36 30.0889C170.297 30.1401 170.062 30.2077 170.032 30.2479C169.961 30.3426 169.934 30.8033 169.872 30.954C169.799 31.1359 169.712 31.2415 169.607 31.3956C169.454 31.6196 169.291 31.9115 169.066 32.0726C168.887 32.2009 168.446 32.2993 168.526 31.989C168.586 31.7589 169.047 31.5532 169.205 31.3605C169.648 30.8173 169.76 30.0699 169.559 29.4147C169.439 29.0247 169.265 28.6181 168.997 28.306C168.886 28.1772 168.188 27.6507 168.84 27.7524C169.133 27.7981 169.442 28.303 169.573 28.5312C169.791 28.9138 169.906 29.3369 170.015 29.7611C170.567 29.4785 170.785 28.7347 170.744 28.153C170.718 27.7789 170.581 27.3386 170.338 27.0534C170.284 26.9904 170 26.6886 169.896 26.7021C169.787 26.7162 169.666 26.9646 169.578 27.0413C169.488 27.12 169.288 27.2846 169.167 27.2259C168.934 27.1128 169.217 26.9457 169.289 26.8732C169.572 26.5851 169.702 26.2297 169.838 25.8548C170.082 25.1862 170.138 24.4349 170.038 23.733C169.931 22.9725 169.569 22.3468 168.996 21.8575C168.714 21.616 168.381 21.1241 168.024 21.2401C167.817 21.3074 167.291 21.7082 167.289 21.3075C167.289 21.2631 167.424 20.9452 167.457 20.8713C167.538 20.6866 167.542 20.7833 167.701 20.6688C167.921 20.51 167.854 20.4175 167.839 20.1024C167.828 19.8583 167.849 19.611 167.826 19.3676C167.752 18.5976 167.426 18.0774 166.665 17.9223C166.568 17.9024 166.143 17.7927 166.079 17.8725C166.052 17.9077 166.231 18.3175 166.253 18.4221C166.29 18.5914 166.298 18.7422 166.298 18.921C166.299 19.0654 166.382 19.4826 166.211 19.5433C166.01 19.6152 166.016 19.3845 166.005 19.2621C165.966 18.8486 165.942 18.5349 165.781 18.1314C165.266 18.4567 165.233 18.0771 165.122 17.6851C165.052 17.4385 165.06 17.4368 164.812 17.3102C164.7 17.2532 164.566 17.1726 164.451 17.1299C164.352 17.0928 163.872 17.0651 163.863 16.895C163.837 16.3955 165.642 17.3664 165.785 17.4744C165.982 16.9042 166.168 16.3992 165.903 15.8246C165.658 15.294 165.165 14.6154 164.619 14.3719C164.158 14.1659 163.621 14.1807 163.151 14.3299C162.944 14.3956 162.717 14.4866 162.525 14.584C162.351 14.6718 162.247 14.7983 162.061 14.8538C162.081 14.9304 162.177 15.1481 162.221 15.2117C162.318 15.3551 162.221 15.3005 162.418 15.3702C162.599 15.4343 162.912 15.3192 163.073 15.4164C163.381 15.6018 162.81 15.6943 162.611 15.6882C162.353 15.6802 162.286 15.5666 162.219 15.8387C162.188 15.9624 162.196 16.1105 162.177 16.2392C162.145 16.4535 162.25 17.2537 162.118 17.3815C161.934 17.5599 161.765 17.2884 161.742 17.132C161.708 16.8976 161.799 16.5251 161.828 16.2868C161.884 15.8304 161.969 15.4266 161.739 14.9915C161.35 14.2552 160.532 13.9395 159.765 13.7858C159.918 14.0374 160.022 14.2892 160.101 14.5759C160.136 14.7041 160.121 14.9617 160.199 15.0724C160.254 15.1499 160.424 15.1758 160.496 15.2624C160.75 15.5671 160.676 16.2519 160.398 16.5014C160.072 16.794 159.591 16.7092 159.198 16.6428C159.111 16.6281 158.749 16.6163 158.739 16.5138C158.71 16.2357 159.281 16.4333 159.348 16.4375C159.71 16.4599 160.273 16.1362 160.094 15.6794C160.057 15.5863 159.973 15.6089 159.939 15.5449C159.847 15.3746 159.843 15.2682 159.822 15.0595C159.731 14.1559 159.087 13.0119 157.978 13.3381C158.029 13.3232 157.878 13.3731 157.978 13.3381L157.978 13.3381Z" fill="#D9D9D9"/>
    <path d="M161.858 17.8836C162.299 17.7195 162.951 18.492 163.052 18.8514C163.146 19.1845 163.149 19.6852 163.086 20.0233C163.374 19.9989 163.654 19.9799 163.931 19.899C164.183 19.8254 164.338 19.7137 164.25 20.0527C164.172 20.3563 163.903 20.4172 163.624 20.4486C163.44 20.4693 163.197 20.3812 163.029 20.4222C162.851 20.4655 162.806 20.6083 162.634 20.7398C162.253 21.0311 161.843 21.0197 161.395 21.0515C161.448 21.2038 161.774 22.2912 161.32 21.8782C161.142 21.7167 161.117 21.3637 161.01 21.1531C160.953 21.0407 160.389 20.4747 160.596 20.3191C160.735 20.2142 161.158 20.761 161.306 20.7704C161.572 20.7874 162.183 20.4728 162.388 20.3102C162.788 19.9939 162.757 19.4694 162.634 19.0195C162.484 18.4727 162.096 18.3378 161.858 17.8836C161.924 17.8591 161.91 17.9826 161.858 17.8836Z" fill="#D9D9D9"/>
    <path d="M158.183 20.367C158.159 19.9889 158.707 20.5699 158.748 20.6298C158.89 20.8375 159.205 21.3058 158.799 21.3482C159.493 21.3482 160.152 21.5656 160.628 22.0883C161.249 22.7691 161.474 23.7616 162.168 24.3812C162.738 24.8898 163.211 25.0358 163.933 24.7984C164.402 24.6443 164.546 24.3608 164.906 24.0988C165.781 25.2169 163.31 25.2997 162.769 25.3223C163.156 25.8403 162.677 26.7185 162.293 27.0987C162.812 27.4773 162.918 28.1956 162.588 28.7463C162.173 29.439 161.252 29.6386 160.508 29.5141C160.499 29.8695 160.527 30.1721 160.431 30.5075C161.466 30.6905 162.305 31.6378 162.33 32.6887C162.602 32.6266 162.847 32.5258 163.13 32.5285C163.73 32.5341 164.345 32.8117 164.884 33.0413C165.014 32.481 165.395 32.0636 165.94 31.8979C166.192 31.8215 166.889 31.6478 167.083 31.9201C166.735 32.088 166.343 32.0257 165.994 32.1954C165.698 32.3391 165.523 32.5771 165.387 32.869C165.313 33.0268 165.257 33.3522 165.107 33.4598C164.879 33.6232 164.661 33.3086 164.46 33.1896C164.139 33.0006 163.7 32.8466 163.326 32.8213C163.125 32.8078 162.442 32.8547 162.323 32.9914C162.236 33.0909 162.296 33.4903 162.271 33.6421C162.248 33.7876 162.206 33.914 162.171 34.0544C162.14 34.1793 162.138 34.3324 162.064 34.4424C161.99 34.554 161.643 34.7593 161.526 34.5688C161.463 34.4668 161.803 34.0005 161.838 33.899C161.971 33.5188 162.058 32.9713 161.993 32.5717C161.89 31.9369 161.424 31.2344 160.841 30.9506C160.203 30.6399 159.773 30.7721 159.387 31.34C159.291 31.4818 159.156 31.7567 158.962 31.7653C158.742 31.7751 158.438 31.428 158.215 31.3599C157.691 31.2002 157.416 31.4524 157.134 31.8161C156.9 32.1164 156.422 32.4214 156.613 31.7658C156.925 30.6942 158.187 31.0093 158.923 31.2712C159.159 30.6725 159.545 30.4433 160.16 30.4601C160.136 30.1448 160.22 29.8492 160.135 29.5395C160.045 29.2116 159.871 29.0281 159.63 28.8081C159.521 28.7078 159.257 28.5247 159.426 28.3939C159.512 28.3269 159.624 28.3974 159.707 28.4242C159.925 28.4949 160.106 28.6745 160.235 28.856C160.325 28.9836 160.376 29.1504 160.512 29.2077C160.617 29.2519 160.831 29.2148 160.942 29.2049C161.228 29.1792 161.537 29.0915 161.789 28.9486C161.999 28.8299 162.132 28.6786 162.229 28.4588C162.428 28.0106 162.232 27.8024 162.027 27.4403C161.848 27.1231 162.017 27.0016 162.195 26.7322C162.364 26.4739 162.492 26.1689 162.477 25.8567C162.459 25.4705 162.408 25.1264 162.13 24.8244C161.799 24.4642 161.483 24.1956 161.257 23.743C160.957 23.1388 160.65 22.4589 160.103 22.0307C159.615 21.6484 158.822 21.5701 158.218 21.6015C158.09 21.6082 157.451 21.7256 157.673 21.4277C157.82 21.2314 158.388 21.3327 158.573 21.3405C158.5 21.1955 158.498 21.0205 158.438 20.8696C158.367 20.6932 158.226 20.5572 158.183 20.3669C158.231 20.5803 158.177 20.2686 158.183 20.3669L158.183 20.367Z" fill="#D9D9D9"/>
    <path d="M165.044 20.3901C165.349 20.8517 165.409 21.7246 165.367 22.255C165.356 22.3874 165.287 22.5377 165.286 22.6639C165.285 22.832 165.356 22.9555 165.468 23.1121C165.681 23.4118 165.961 23.6633 166.193 23.9494C166.631 23.2243 166.863 22.7179 166.644 21.842C166.587 21.6132 166.515 21.43 166.356 21.2566C166.23 21.1188 166.006 21.0184 166.015 20.8086C166.377 20.8103 166.784 21.1967 166.968 21.5012C167.149 21.7979 167.077 22.2629 167.101 22.5913C167.443 22.5814 167.714 22.5977 168.043 22.6845C168.242 22.7368 168.893 22.8353 168.849 23.125C168.784 23.5514 168.391 23.2085 168.25 23.1206C167.939 22.9263 167.697 22.9266 167.346 22.9554C167.011 22.983 167.135 22.9741 167.056 23.2633C167.016 23.407 166.916 23.5344 166.845 23.6631C166.774 23.7915 166.711 23.9212 166.617 24.035C166.45 24.2372 166.428 24.1473 166.494 24.356C166.573 24.6067 166.892 24.8257 167.023 25.0602C167.204 25.3837 167.35 25.7731 167.441 26.1333C167.955 25.5008 168.547 25.1849 169.375 25.4367C169.359 25.7143 168.82 25.6537 168.658 25.6915C168.509 25.7261 168.33 25.7886 168.202 25.8787C168.12 25.937 168.05 26.024 167.977 26.0934C167.878 26.1867 167.573 26.3762 167.536 26.4945C167.502 26.6021 167.58 26.795 167.592 26.9017C167.674 27.637 167.581 28.7885 167.058 29.3764C167.423 29.4233 167.855 29.6889 168.094 29.9638C168.195 30.0793 168.53 30.7221 168.303 30.8128C168.047 30.9152 167.681 30.0641 167.49 29.9278C167.387 29.855 166.974 29.5973 166.855 29.6333C166.723 29.6727 166.553 29.994 166.454 30.0997C166.161 30.4148 165.807 30.6953 165.414 30.8756C165.282 30.9363 164.802 31.1597 164.658 31.0133C164.484 30.8361 164.934 30.6733 165.048 30.6254C166.338 30.0798 167.317 28.7853 167.299 27.3456C167.283 25.9965 166.511 24.4263 165.403 23.6189C165.161 23.4421 164.685 23.369 164.686 23.0554C164.686 22.7291 165.011 22.3876 165.044 22.0459C165.069 21.7875 165.02 21.4955 164.947 21.2494C164.881 21.0243 164.687 20.5033 165.044 20.3902C165.184 20.6029 164.952 20.4194 165.044 20.3902V20.3901Z" fill="#D9D9D9"/>
    <path d="M158.343 23.2665C158.686 23.2305 159.046 23.6393 159.299 23.8073C159.481 23.9284 159.69 24.0607 159.908 24.1006C160.148 24.1446 160.325 24.0483 160.559 24.0338C160.695 24.4449 160.415 24.6124 160.095 24.6407C159.798 24.6668 159.651 24.5577 159.459 24.8204C159.331 24.9964 159.258 25.2112 159.205 25.4196C159.086 25.8776 159.105 26.2176 159.24 26.6647C159.269 26.7598 159.29 26.8584 159.318 26.9528C159.381 27.1653 159.298 27.1117 159.472 27.2164C159.661 27.3309 159.858 27.2001 159.978 27.4653C159.933 27.5882 158.708 27.3724 158.497 27.4201C158.25 27.476 158.019 27.626 157.816 27.7713C157.683 27.8665 157.412 28.2029 157.239 28.181C156.753 28.1192 157.678 27.4205 157.836 27.3375C158.237 27.1265 158.607 27.1573 159.037 27.1411C158.669 26.5236 158.612 25.7379 158.924 25.0505C158.98 24.9283 159.289 24.5916 159.278 24.4666C159.27 24.3832 159.034 24.1742 158.979 24.111C158.863 23.9783 158.753 23.8022 158.617 23.6993C158.529 23.6329 157.858 23.3271 158.343 23.2665C158.425 23.2579 158.193 23.2852 158.343 23.2665Z" fill="#D9D9D9"/>
    <path d="M160.183 34.854C160.091 34.5048 160.605 34.8295 160.67 34.9444C160.761 35.1029 160.78 35.2416 160.792 35.4231C160.82 35.8727 160.8 36.2222 160.5 36.5586C160.955 36.669 161.553 36.5003 161.983 36.3587C162.253 36.27 162.458 36.1566 162.663 35.9573C162.813 35.8112 162.948 35.5731 163.177 35.5445C163.336 36.0586 162.917 36.2534 162.572 36.4861C161.999 36.8724 161.418 36.888 160.738 36.9174C160.483 36.9284 160.205 36.9561 159.959 36.8744C159.914 36.8595 159.88 36.8232 159.837 36.806C159.738 36.7667 159.648 36.7054 159.54 36.6882C159.318 36.6529 159.22 36.7302 159.009 36.8271C158.734 36.953 158.122 37.2465 157.804 37.1589C157.188 36.989 158.355 36.769 158.451 36.7349C158.682 36.6533 158.715 36.5192 158.893 36.3854C159.141 36.1977 159.423 36.2487 159.711 36.2836C159.929 36.3099 159.999 36.3657 160.162 36.1897C160.268 36.0755 160.323 35.8776 160.35 35.729C160.413 35.3907 160.246 35.1753 160.183 34.854C160.204 34.961 160.162 34.776 160.183 34.854Z" fill="#D9D9D9"/>
    <path d="M165.126 35.4013C165.159 35.3498 165.191 35.2983 165.223 35.2468C165.65 35.5795 165.664 36.2163 165.785 36.698C165.901 37.1635 166.016 37.7341 165.704 38.1313C165.392 38.5269 164.91 38.6558 164.424 38.6708C164.171 38.6786 163.936 38.6688 163.701 38.5604C163.653 38.5385 163.576 38.4864 163.527 38.4753C163.469 38.3628 163.409 38.3464 163.35 38.4259C163.291 38.473 163.233 38.5211 163.175 38.5703C162.075 39.2655 160.574 39.3353 159.364 39.0024C159.419 39.4637 159.503 40.0079 159.105 40.3554C158.943 40.4964 158.375 40.6455 158.177 40.514C157.911 40.3381 158.295 40.1777 158.465 40.0718C158.714 39.9162 158.981 39.832 159.051 39.5206C159.087 39.3613 159.064 38.8886 158.991 38.7923C158.958 38.7498 157.306 37.9237 157.91 37.6894C158.084 37.622 158.35 37.9865 158.468 38.0877C158.692 38.2803 158.924 38.4243 159.198 38.5377C159.881 38.8208 160.489 38.9142 161.218 38.8136C161.805 38.7325 162.392 38.5638 162.864 38.1901C162.97 38.1057 163.082 37.9414 163.202 37.8825C163.389 37.7912 163.344 37.857 163.524 37.9635C164.153 38.3361 165.279 38.3384 165.513 37.4914C165.704 36.8031 165.131 36.0839 165.126 35.4013C165.146 35.343 165.128 35.5806 165.126 35.4013H165.126Z" fill="#D9D9D9"/>
    <path d="M152.781 13.0928C153.091 13.3396 153.544 13.4374 153.868 13.7006C154.044 13.8442 154.203 14.0873 154.271 14.3055C154.428 14.8082 154.437 15.6134 154.239 16.114C154.15 16.3391 154.012 16.4985 154.077 16.7013C154.121 16.8375 154.263 17.001 154.336 17.1276C154.48 17.3773 154.648 17.6211 154.766 17.8841C154.922 18.2282 154.968 18.6621 154.785 19.0053C154.661 19.2382 154.276 19.7662 154.011 19.8409C154.241 20.0098 154.439 20.1652 154.524 20.4462C154.561 20.5709 154.614 20.8492 154.574 20.9707C154.517 21.1377 154.438 21.0872 154.338 21.198C154.205 21.3446 154.239 21.3432 154.291 21.5913C154.333 21.7902 154.374 21.9838 154.43 22.1794C154.467 22.3083 154.513 22.4369 154.531 22.5702C154.612 23.1594 154.592 23.8247 154.574 24.4178C154.556 24.9904 154.18 26.1016 153.552 26.254C153.64 26.4965 153.794 26.7443 153.897 26.9862C154.008 27.2475 154.106 27.5112 154.22 27.7715C154.314 27.986 154.376 28.1939 154.434 28.4179C154.476 28.5804 154.513 28.7252 154.528 28.8946C154.59 29.5988 154.563 30.3181 154.567 31.0239C154.569 31.5507 154.674 32.1546 154.443 32.629C154.297 32.9293 154.122 33.1302 153.905 33.3649C154.394 33.8101 154.801 34.76 154.64 35.4152C154.604 35.5597 154.519 35.6971 154.433 35.8162C154.25 36.0681 154.24 36.0848 154.346 36.3752C154.471 36.7205 154.563 37.0298 154.65 37.3899C154.772 37.8923 154.848 38.2248 154.857 38.763C154.868 39.3551 154.959 39.9887 154.755 40.5576C154.654 40.8401 154.395 41.1694 154.369 41.4592C154.34 41.7769 154.707 42.0976 154.823 42.3873C154.931 42.659 154.933 43.0063 154.924 43.294C154.906 43.9186 154.628 44.4828 154.533 45.0958C154.493 45.3512 154.361 45.7568 154.409 46.0145C154.415 46.0516 154.548 46.1395 154.563 46.1825C154.6 46.2886 154.575 46.3485 154.589 46.4488C154.602 46.5401 154.627 46.6288 154.639 46.7196C154.712 47.3054 154.658 47.8787 154.293 48.3591C154.133 48.5696 153.921 48.7174 153.694 48.8438C153.566 48.9152 153.447 48.9806 153.308 49.0262C153.253 49.0442 153.083 48.9855 153.065 48.994C152.918 49.0668 152.797 49.2932 152.627 49.3835C152.522 49.4395 152.419 49.4789 152.304 49.5083C151.824 49.6318 151.198 49.6102 150.709 49.5252C150.22 49.4402 149.637 49.1458 149.199 48.9149C148.842 48.727 148.676 48.5521 148.461 48.2511C148.325 48.0604 148.142 47.9072 147.968 47.7484C147.847 47.6382 147.697 47.4123 147.562 47.3353C147.241 47.1529 146.542 47.4504 146.137 47.4995C145.442 47.5836 144.794 47.5095 144.177 47.1781C143.883 47.0199 143.582 46.9331 143.349 46.6802C143.042 46.348 142.921 45.913 142.73 45.5162C142.552 45.1463 142.648 44.404 142.31 44.2249C142.191 44.1621 141.981 44.1279 141.849 44.0816C141.343 43.9033 141.049 43.7028 140.697 43.285C140.46 43.0036 140.292 42.6819 140.086 42.3759C139.636 41.704 139.412 41.103 139.505 40.2831C139.532 40.0387 139.6 39.8059 139.634 39.5605C139.667 39.3219 139.814 39.0594 139.802 38.8854C139.788 38.704 139.658 38.5195 139.634 38.3299C139.603 38.0959 139.771 37.741 139.7 37.543C139.632 37.3528 139.247 37.0774 139.106 36.9461C138.917 36.7709 138.743 36.5887 138.573 36.3944C138.238 36.0095 138.079 35.5918 138.016 35.0856C137.909 34.214 138.346 33.3437 138.883 32.692C138.249 32.3428 137.953 31.9852 138.067 31.2107C138.126 30.8102 138.292 30.3312 138.461 29.9763C138.611 29.6617 138.814 29.4247 139.028 29.1484C139.099 29.1058 139.17 29.0642 139.242 29.0237C139.233 28.9099 139.225 28.796 139.219 28.682C139.21 28.5093 139.203 28.3363 139.202 28.1633C139.199 27.8251 139.285 27.5894 139.421 27.276C139.547 26.9855 139.685 26.7817 139.939 26.5826C140.194 26.3821 140.226 26.4305 140.146 26.0976C140.047 25.6875 139.938 25.2907 139.921 24.8665C139.883 23.9367 139.915 23.1976 140.407 22.3788C140.72 21.8575 141.17 21.5414 141.626 21.1518C142.047 20.7926 142.106 20.2415 142.145 19.7011C142.184 19.169 142.243 18.4466 142.596 18.0223C142.792 17.7872 143.031 17.6753 143.324 17.6305C143.604 17.5877 144.075 17.7111 144.109 17.3037C144.13 17.0641 143.962 16.7593 143.958 16.5037C143.95 16.0186 144.121 15.5567 144.388 15.1567C145.153 14.009 146.337 13.6211 147.628 14.1161C147.846 14.1996 148.214 14.5276 148.445 14.4853C148.659 14.4463 148.868 14.0987 149.065 13.9852C149.48 13.7459 149.978 13.5445 150.459 13.5028C150.643 13.4868 150.677 13.4919 150.818 13.4046C150.932 13.3336 151.004 13.2447 151.132 13.1835C151.42 13.0447 151.73 13.0426 152.043 13.0256C152.266 13.0135 152.585 12.9471 152.781 13.0927M152.328 13.3379C151.219 13.0117 150.574 14.1557 150.484 15.0594C150.463 15.268 150.459 15.3745 150.367 15.5447C150.332 15.6087 150.249 15.5861 150.212 15.6792C150.033 16.136 150.596 16.4597 150.957 16.4373C151.025 16.4331 151.596 16.2355 151.567 16.5136C151.557 16.6161 151.195 16.6279 151.108 16.6426C150.715 16.709 150.234 16.7938 149.908 16.5012C149.63 16.2517 149.555 15.5669 149.81 15.2622C149.882 15.1756 150.051 15.1497 150.107 15.0722C150.185 14.9615 150.17 14.7039 150.205 14.5757C150.284 14.289 150.388 14.0372 150.541 13.7856C149.774 13.9393 148.956 14.255 148.567 14.9913C148.337 15.4264 148.422 15.8302 148.478 16.2867C148.507 16.5249 148.598 16.8974 148.564 17.1318C148.541 17.2882 148.372 17.5597 148.188 17.3813C148.055 17.2536 148.161 16.4533 148.129 16.239C148.11 16.1103 148.118 15.9622 148.087 15.8385C148.02 15.5664 147.952 15.68 147.694 15.688C147.496 15.6941 146.925 15.6016 147.232 15.4162C147.393 15.319 147.707 15.4341 147.888 15.37C148.084 15.3003 147.988 15.3549 148.085 15.2115C148.128 15.1479 148.225 14.9302 148.245 14.8536C148.059 14.7981 147.955 14.6716 147.781 14.5838C147.589 14.4864 147.362 14.3954 147.155 14.3297C146.685 14.1805 146.148 14.1657 145.686 14.3717C145.141 14.6152 144.648 15.2938 144.403 15.8244C144.137 16.399 144.323 16.904 144.521 17.4742C144.663 17.3662 146.469 16.3952 146.442 16.8948C146.433 17.0649 145.954 17.0927 145.855 17.1297C145.74 17.1724 145.605 17.2531 145.494 17.3101C145.246 17.4366 145.254 17.4383 145.184 17.6849C145.073 18.0769 145.04 18.4565 144.525 18.1312C144.364 18.5347 144.34 18.8484 144.301 19.2619C144.29 19.3844 144.296 19.615 144.094 19.5431C143.924 19.4824 144.007 19.0652 144.007 18.9208C144.007 18.742 144.016 18.5912 144.052 18.4219C144.075 18.3173 144.254 17.9076 144.226 17.8724C144.163 17.7925 143.738 17.9022 143.64 17.9221C142.88 18.0772 142.553 18.5975 142.48 19.3674C142.456 19.6108 142.478 19.8581 142.467 20.1022C142.452 20.4173 142.385 20.5098 142.605 20.6686C142.764 20.7831 142.768 20.6864 142.849 20.8711C142.882 20.945 143.017 21.2629 143.016 21.3073C143.015 21.708 142.489 21.3072 142.282 21.2399C141.925 21.1239 141.592 21.6158 141.309 21.8573C140.737 22.3466 140.375 22.9724 140.267 23.7328C140.168 24.4347 140.224 25.186 140.467 25.8546C140.604 26.2295 140.734 26.5849 141.017 26.873C141.088 26.9455 141.372 27.1126 141.139 27.2257C141.018 27.2844 140.818 27.1199 140.728 27.0411C140.64 26.9644 140.519 26.716 140.41 26.7019C140.306 26.6885 140.022 26.9903 139.968 27.0532C139.724 27.3384 139.588 27.7787 139.562 28.1528C139.521 28.7345 139.739 29.4784 140.291 29.7609C140.399 29.3368 140.515 28.9136 140.733 28.531C140.864 28.3028 141.173 27.7979 141.466 27.7522C142.118 27.6505 141.42 28.177 141.309 28.3059C141.041 28.6179 140.867 29.0245 140.747 29.4145C140.545 30.0697 140.658 30.8171 141.101 31.3603C141.259 31.553 141.72 31.7587 141.78 31.9888C141.86 32.2991 141.419 32.2007 141.24 32.0724C141.014 31.9113 140.852 31.6193 140.699 31.3954C140.594 31.2413 140.507 31.1357 140.433 30.9538C140.372 30.8031 140.344 30.3424 140.274 30.2477C140.244 30.2076 140.009 30.1399 139.946 30.0887C139.824 29.9911 139.726 29.8584 139.63 29.7368C139.456 29.5152 139.467 29.3891 139.217 29.5772C138.765 29.9177 138.338 30.9069 138.426 31.472C138.497 31.9196 138.939 32.3004 139.318 32.5105C139.621 32.6782 140.02 32.894 140.364 32.9223C140.597 32.9414 141.082 32.7242 141.276 32.9205C141.379 33.0253 141.34 33.2722 141.398 33.4139C141.471 33.5916 141.608 33.7561 141.714 33.9146C141.909 34.2064 142.08 34.5117 142.355 34.7368C142.82 35.1165 143.376 35.0474 143.864 35.3116C144.436 35.6213 143.574 35.6034 143.363 35.5775C141.998 35.4104 141.714 34.1296 140.81 33.3478C140.581 33.1495 140.436 33.2415 140.14 33.2069C139.842 33.1721 139.542 32.946 139.244 32.9338C139.041 32.9255 139.065 32.9707 138.921 33.1863C138.837 33.3116 138.743 33.437 138.677 33.5735C138.568 33.8 138.486 34.0901 138.43 34.3381C138.194 35.3859 138.816 36.6596 139.835 37.0617C140.14 37.182 140.207 37.1692 140.177 37.5101C140.147 37.8596 140.009 38.0935 140.101 38.4584C140.201 38.8565 140.503 39.2005 140.896 39.3251C141.228 39.4304 141.591 39.3246 141.914 39.4414C141.923 39.9576 140.301 39.5444 140.106 39.419C139.587 40.6542 139.978 41.6931 140.706 42.7518C141.415 43.784 142.623 44.0641 143.81 43.8427C144.356 43.7408 144.871 43.3712 145.255 42.981C145.366 42.868 145.982 42.2517 145.848 42.8143C145.803 43.002 145.502 43.246 145.373 43.3634C145.157 43.5591 144.77 43.7728 144.602 43.9955C144.402 44.2592 144.638 44.6656 144.866 44.8713C145.138 45.1172 145.44 45.156 145.789 45.1598C145.92 45.1612 146.476 45.0977 146.542 45.2859C146.712 45.7715 145.213 45.5802 144.997 45.4952C144.364 45.2478 144.163 44.7403 144.208 44.1043C143.7 44.2315 143.325 44.2522 142.803 44.2492C142.974 44.825 143.009 45.3446 143.305 45.8798C143.577 46.3703 143.874 46.6696 144.394 46.884C145.696 47.4202 147.492 47.2189 148.553 46.2319C148.132 46.1642 147.869 45.8947 147.649 45.5572C147.409 45.1903 147.477 44.7227 147.256 44.364C147.259 44.1761 147.189 44.1328 147.044 44.2343C146.965 44.2483 146.885 44.2524 146.805 44.2466C146.651 44.2576 146.423 44.2768 146.281 44.2096C146.176 44.1599 145.883 43.8635 146.004 43.7683C146.062 43.7225 146.413 43.8369 146.497 43.8363C146.628 43.8354 146.764 43.8053 146.891 43.7781C147.128 43.7271 147.339 43.6554 147.541 43.5197C147.68 43.4258 147.927 43.1086 148.108 43.1072C148.455 43.1043 148.247 43.4493 148.156 43.6012C147.865 44.0841 147.627 44.513 147.824 45.0988C147.876 45.2534 147.997 45.4186 148.117 45.5267C148.233 45.6323 148.724 45.9883 148.847 45.9717C148.896 45.965 149.157 45.7059 149.184 45.6646C149.294 45.4987 149.288 45.4497 149.226 45.2343C149.128 44.8966 148.975 44.4987 149.229 44.1782C149.507 44.3683 149.474 44.9512 149.557 45.2515C149.62 45.4767 149.729 45.6841 149.885 45.8588C150.168 46.1766 150.553 46.3204 150.928 46.4939C151.244 46.6405 151.421 46.8721 150.933 46.8577C150.415 46.8425 149.794 46.4425 149.512 46.0173C149.246 46.2873 148.846 46.4348 148.545 46.6761C148.272 46.8951 148.021 47.0117 147.729 47.1817C148.549 47.6569 148.982 48.509 149.891 48.8479C150.628 49.1228 151.38 49.3131 152.152 49.0396C152.422 48.9439 152.653 48.8109 152.803 48.5615C152.898 48.4042 152.925 48.2143 153.045 48.0708C153.22 48.2233 153.224 48.482 153.214 48.6943C153.76 48.293 154.208 47.9661 154.298 47.2483C154.373 46.6512 154.12 46.0932 154.088 45.5019C153.67 45.7763 153.327 46.063 152.853 46.2166C152.436 46.3516 152.46 46.0906 152.763 45.8932C153.123 45.6578 153.503 45.5221 153.831 45.2242C154.184 44.9033 154.306 44.8248 154.353 44.3286C153.439 44.6519 152.745 44.7746 151.748 44.6263C150.865 44.4948 150.054 43.6629 150.002 42.7628C149.404 42.8892 148.997 42.9041 148.648 42.3377C148.335 41.8304 148.38 41.3281 148.402 40.7641C147.63 41.2921 147.069 41.4856 146.144 41.4624C145.402 41.4438 144.591 41.3855 143.907 41.0853C143.223 40.7853 142.861 40.1331 142.559 39.4761C142.166 38.6205 141.697 37.664 142.083 36.7194C141.405 36.6955 140.677 36.1746 140.395 35.554C140.331 35.4134 140.325 35.1066 140.246 35.0038C140.147 34.8759 139.897 34.9206 139.698 34.908C139.451 34.8925 139.139 34.8731 139.046 34.5988C139.012 34.4977 139.027 34.2059 139.144 34.1404C139.315 34.0441 139.724 34.4535 140.027 34.3445C140.395 34.2122 140.359 33.798 140.652 33.619C141.016 33.3971 140.978 33.9174 140.922 34.166C140.84 34.5292 140.507 34.6875 140.612 35.0542C140.676 35.2771 140.776 35.4897 140.921 35.6715C141.181 35.9976 141.553 36.1758 141.939 36.3061C142.086 36.3556 142.489 36.403 142.524 36.5955C142.533 36.6429 142.362 36.9839 142.346 37.0873C142.305 37.3595 142.295 37.6177 142.344 37.8892C142.481 38.6449 142.858 39.5449 143.316 40.1632C143.62 40.5732 144.11 40.7754 144.586 40.9147C145.625 41.2191 146.716 41.2794 147.7 40.7941C148.144 40.5746 148.411 40.2943 148.762 39.959C148.872 39.8545 149.104 39.5966 149.172 39.8925C149.209 40.0516 148.895 40.3678 148.841 40.5187C148.689 40.9455 148.636 41.7151 148.979 42.0768C149.287 42.403 149.782 42.2376 150.168 42.3308C150.54 42.4208 150.394 42.7846 150.504 43.1062C150.612 43.4192 150.837 43.7283 151.103 43.9251C151.621 44.3071 152.425 44.3869 153.044 44.3305C153.635 44.2767 154.448 43.8638 154.573 43.2178C154.662 42.759 154.499 42.435 154.183 42.143C154.15 42.2785 154.028 42.6396 153.884 42.7056C153.598 42.8363 153.631 42.5521 153.688 42.3594C153.804 41.9633 153.974 41.5648 154.131 41.1809C154.525 40.2223 154.679 39.2922 154.531 38.2522C154.446 37.6485 154.247 36.968 153.987 36.4278C153.894 36.2332 153.825 36.0431 153.703 35.8636C153.627 35.7521 153.166 35.3896 153.166 35.2879C153.166 35.1436 153.482 35.1574 153.562 35.1757C153.838 35.2392 153.875 35.4941 154.05 35.6802C154.14 35.399 154.273 35.134 154.248 34.8352C154.22 34.5106 154.008 33.9193 153.703 33.7493C153.515 33.6449 153.604 33.6836 153.408 33.7569C153.271 33.8079 153.138 33.902 153.01 33.9724C152.72 34.1332 152.431 34.254 152.117 34.3582C151.961 34.4101 151.814 34.4399 151.664 34.501C151.551 34.5469 151.383 34.7035 151.252 34.6908C150.957 34.662 151.128 34.4847 151.289 34.3696C151.496 34.221 151.711 34.1419 151.954 34.0503C153.208 33.577 154.279 32.8673 154.279 31.4086C154.28 30.3749 154.406 29.0946 154.024 28.1166C153.845 27.6584 153.659 27.1885 153.443 26.7466C153.269 26.3908 152.801 25.9127 152.781 25.5085C152.987 25.4497 153.287 25.7421 153.361 25.9063C154.406 25.3681 154.308 23.8592 154.234 22.8952C154.205 22.5115 154.06 22.2301 153.948 21.8772C153.881 21.6691 153.868 21.3814 153.874 21.1648C153.88 20.9268 154.057 20.6478 154.034 20.4305C153.981 19.9121 152.895 19.5548 152.476 19.4251C152.048 19.2927 151.603 19.2465 151.16 19.3194C150.563 19.4175 149.963 19.834 149.345 19.7331C149.327 19.4616 149.947 19.3859 150.117 19.3311C150.445 19.2253 150.766 19.1306 151.11 19.0709C151.497 19.0039 151.884 18.9616 152.268 19.0578C152.61 19.1433 152.932 19.271 153.244 19.4288C153.766 19.694 153.956 19.4381 154.236 19.0017C154.686 18.3025 154.38 17.8377 153.987 17.2141C153.742 16.8255 153.505 16.5052 153.122 16.2284C152.908 16.0735 152.635 15.9782 152.432 15.8132C152.275 15.6852 152.054 15.2945 152.363 15.2998C152.501 15.3022 152.825 15.6402 152.941 15.7223C153.225 15.9223 153.5 16.1262 153.76 16.3579C154.059 15.7751 154.068 14.9887 153.837 14.3842C153.575 13.7019 152.954 13.5569 152.328 13.3379C152.428 13.3729 152.277 13.323 152.328 13.3379L152.328 13.3379Z" fill="#D9D9D9"/>
    <path d="M148.449 17.8836C148.21 18.3378 147.823 18.4727 147.673 19.0196C147.55 19.4694 147.519 19.994 147.918 20.3103C148.124 20.4729 148.735 20.7874 149 20.7705C149.148 20.7611 149.572 20.2143 149.711 20.3192C149.917 20.4748 149.353 21.0408 149.297 21.1531C149.19 21.3638 149.164 21.7168 148.987 21.8783C148.533 22.2913 148.858 21.2039 148.912 21.0516C148.463 21.0198 148.053 21.0312 147.673 20.7399C147.501 20.6084 147.455 20.4656 147.277 20.4223C147.109 20.3813 146.866 20.4694 146.682 20.4487C146.403 20.4173 146.135 20.3564 146.056 20.0528C145.968 19.7138 146.124 19.8255 146.376 19.8991C146.652 19.98 146.933 19.999 147.221 20.0234C147.157 19.6853 147.161 19.1846 147.254 18.8515C147.355 18.4919 148.008 17.7195 148.449 17.8836C148.397 17.9826 148.383 17.8591 148.449 17.8836Z" fill="#D9D9D9"/>
    <path d="M152.123 20.367C152.08 20.5572 151.938 20.6933 151.868 20.8696C151.807 21.0206 151.806 21.1955 151.733 21.3405C151.918 21.3327 152.486 21.2314 152.632 21.4278C152.855 21.7256 152.216 21.6083 152.088 21.6016C151.484 21.5701 150.691 21.6484 150.202 22.0307C149.655 22.459 149.349 23.1389 149.048 23.743C148.823 24.1956 148.507 24.4643 148.176 24.8244C147.898 25.1265 147.846 25.4706 147.829 25.8568C147.814 26.169 147.941 26.474 148.111 26.7322C148.288 27.0016 148.458 27.1231 148.278 27.4403C148.074 27.8024 147.878 28.0106 148.077 28.4588C148.174 28.6787 148.307 28.8299 148.516 28.9486C148.769 29.0916 149.078 29.1793 149.364 29.2049C149.475 29.2149 149.689 29.2519 149.794 29.2078C149.93 29.1505 149.981 28.9836 150.071 28.8561C150.2 28.6745 150.381 28.4949 150.598 28.4243C150.681 28.3974 150.793 28.3269 150.88 28.394C151.048 28.5247 150.785 28.7079 150.675 28.8081C150.434 29.0281 150.26 29.2116 150.17 29.5395C150.086 29.8492 150.17 30.1448 150.146 30.4602C150.761 30.4433 151.147 30.6726 151.382 31.2713C152.119 31.0094 153.381 30.6943 153.693 31.7659C153.883 32.4214 153.405 32.1164 153.172 31.8161C152.889 31.4524 152.614 31.2003 152.091 31.3599C151.868 31.428 151.564 31.7751 151.344 31.7654C151.15 31.7568 151.015 31.4818 150.919 31.34C150.533 30.7722 150.103 30.64 149.464 30.9506C148.881 31.2345 148.416 31.9369 148.312 32.5717C148.247 32.9713 148.335 33.5188 148.468 33.8991C148.503 34.0005 148.842 34.4668 148.78 34.5688C148.663 34.7593 148.316 34.554 148.241 34.4425C148.168 34.3324 148.166 34.1794 148.135 34.0544C148.1 33.914 148.058 33.7877 148.034 33.6422C148.01 33.4903 148.07 33.091 147.983 32.9914C147.864 32.8548 147.181 32.8078 146.98 32.8214C146.606 32.8466 146.166 33.0007 145.846 33.1896C145.644 33.3087 145.427 33.6233 145.199 33.4598C145.048 33.3523 144.993 33.0268 144.919 32.869C144.783 32.5772 144.608 32.3391 144.312 32.1955C143.962 32.0258 143.57 32.088 143.223 31.9201C143.416 31.6478 144.114 31.8216 144.365 31.8979C144.91 32.0636 145.292 32.481 145.421 33.0414C145.96 32.8117 146.576 32.5341 147.176 32.5285C147.459 32.5259 147.704 32.6266 147.975 32.6887C148.001 31.6378 148.84 30.6906 149.875 30.5075C149.779 30.1721 149.806 29.8695 149.798 29.5141C149.054 29.6387 148.132 29.4391 147.717 28.7463C147.387 28.1956 147.493 27.4774 148.012 27.0987C147.628 26.7185 147.15 25.8403 147.536 25.3223C146.995 25.2998 144.525 25.2169 145.4 24.0989C145.76 24.3608 145.903 24.6443 146.372 24.7985C147.094 25.0359 147.568 24.8898 148.138 24.3812C148.832 23.7616 149.056 22.769 149.677 22.0883C150.154 21.5656 150.812 21.3482 151.507 21.3482C151.101 21.3058 151.416 20.8376 151.558 20.6298C151.598 20.5699 152.146 19.989 152.122 20.3671C152.129 20.2688 152.074 20.5804 152.122 20.3671L152.123 20.367Z" fill="#D9D9D9"/>
    <path d="M145.261 20.3901C145.618 20.5033 145.425 21.0243 145.358 21.2494C145.286 21.4954 145.236 21.7874 145.261 22.0458C145.294 22.3876 145.62 22.729 145.62 23.0554C145.62 23.3689 145.145 23.4421 144.902 23.6188C143.794 24.4261 143.023 25.9963 143.006 27.3456C142.988 28.7854 143.967 30.0799 145.258 30.6254C145.371 30.6733 145.822 30.836 145.647 31.0132C145.503 31.1596 145.023 30.9362 144.891 30.8756C144.499 30.6952 144.144 30.4148 143.851 30.0996C143.753 29.9939 143.582 29.6727 143.451 29.6332C143.331 29.5973 142.918 29.8549 142.816 29.9278C142.625 30.064 142.258 30.9151 142.002 30.8128C141.775 30.722 142.11 30.0792 142.211 29.9637C142.451 29.6889 142.882 29.4232 143.248 29.3763C142.724 28.7885 142.631 27.637 142.714 26.9016C142.725 26.795 142.804 26.602 142.77 26.4944C142.732 26.3761 142.428 26.1867 142.329 26.0933C142.255 26.0239 142.186 25.937 142.103 25.8786C141.975 25.7886 141.796 25.7261 141.648 25.6914C141.485 25.6536 140.946 25.7142 140.93 25.4367C141.759 25.1849 142.351 25.5007 142.865 26.1332C142.956 25.7731 143.102 25.3836 143.282 25.0601C143.413 24.8257 143.733 24.6066 143.811 24.3559C143.877 24.1473 143.855 24.2371 143.688 24.0349C143.594 23.9212 143.531 23.7915 143.46 23.663C143.39 23.5343 143.289 23.4069 143.25 23.2632C143.17 22.974 143.294 22.9829 142.959 22.9554C142.609 22.9266 142.367 22.9262 142.056 23.1205C141.915 23.2085 141.522 23.5514 141.457 23.125C141.413 22.8352 142.064 22.7368 142.262 22.6844C142.591 22.5976 142.863 22.5814 143.204 22.5912C143.228 22.2629 143.157 21.7978 143.337 21.5011C143.522 21.1966 143.928 20.8102 144.291 20.8085C144.299 21.0183 144.075 21.1188 143.949 21.2565C143.791 21.43 143.719 21.6132 143.661 21.8419C143.443 22.7178 143.675 23.2242 144.113 23.9493C144.345 23.6632 144.624 23.4117 144.838 23.112C144.949 22.9554 145.021 22.8319 145.02 22.6638C145.019 22.5376 144.949 22.3873 144.939 22.2549C144.896 21.7245 144.957 20.8516 145.261 20.39C145.354 20.4193 145.121 20.6028 145.261 20.39V20.3901Z" fill="#D9D9D9"/>
    <path d="M151.962 23.2665C152.448 23.3271 151.777 23.6329 151.689 23.6993C151.552 23.8022 151.443 23.9783 151.327 24.111C151.271 24.1742 151.036 24.3831 151.028 24.4666C151.016 24.5916 151.326 24.9283 151.382 25.0505C151.693 25.7379 151.637 26.5236 151.268 27.1411C151.699 27.1573 152.069 27.1265 152.47 27.3375C152.628 27.4205 153.553 28.1192 153.067 28.181C152.894 28.2029 152.623 27.8665 152.49 27.7713C152.287 27.626 152.055 27.476 151.808 27.4201C151.597 27.3724 150.373 27.5882 150.327 27.4653C150.448 27.2001 150.644 27.3309 150.834 27.2164C151.008 27.1117 150.925 27.1653 150.988 26.9528C151.016 26.8584 151.037 26.7598 151.065 26.6647C151.2 26.2176 151.219 25.8776 151.101 25.4196C151.047 25.2112 150.975 24.9963 150.847 24.8204C150.655 24.5577 150.508 24.6668 150.211 24.6407C149.891 24.6124 149.611 24.4449 149.747 24.0338C149.981 24.0483 150.158 24.1446 150.398 24.1006C150.616 24.0607 150.825 23.9284 151.007 23.8073C151.26 23.6393 151.62 23.2305 151.962 23.2665C152.113 23.2852 151.881 23.2579 151.962 23.2665Z" fill="#D9D9D9"/>
    <path d="M150.123 34.854C150.06 35.1753 149.893 35.3907 149.955 35.729C149.983 35.8776 150.038 36.0756 150.144 36.1897C150.307 36.3657 150.377 36.3099 150.594 36.2836C150.883 36.2487 151.165 36.1977 151.413 36.3854C151.591 36.5192 151.624 36.6533 151.855 36.7349C151.951 36.769 153.117 36.989 152.502 37.1589C152.184 37.2465 151.572 36.9531 151.297 36.8271C151.086 36.7302 150.988 36.6528 150.766 36.6882C150.658 36.7053 150.568 36.7667 150.469 36.806C150.426 36.8232 150.392 36.8595 150.347 36.8744C150.101 36.9561 149.823 36.9285 149.568 36.9174C148.888 36.888 148.307 36.8724 147.734 36.4861C147.389 36.2534 146.97 36.0586 147.129 35.5445C147.358 35.5731 147.493 35.8112 147.643 35.9573C147.848 36.1566 148.053 36.27 148.323 36.3587C148.753 36.5003 149.351 36.669 149.806 36.5586C149.506 36.2222 149.486 35.8726 149.514 35.4231C149.526 35.2416 149.545 35.1029 149.635 34.9444C149.701 34.8296 150.215 34.5049 150.123 34.854C150.144 34.776 150.102 34.9611 150.123 34.854Z" fill="#D9D9D9"/>
    <path d="M145.18 35.4013C145.175 36.0839 144.603 36.8031 144.793 37.4914C145.027 38.3384 146.153 38.3361 146.782 37.9635C146.962 37.857 146.918 37.7912 147.104 37.8825C147.225 37.9414 147.336 38.1057 147.442 38.1901C147.914 38.5638 148.501 38.7325 149.089 38.8136C149.817 38.9142 150.425 38.8208 151.109 38.5377C151.382 38.4243 151.614 38.2803 151.838 38.0877C151.956 37.9865 152.222 37.622 152.396 37.6894C153 37.9237 151.348 38.7498 151.316 38.7923C151.242 38.8886 151.219 39.3613 151.255 39.5206C151.325 39.832 151.592 39.9162 151.841 40.0718C152.011 40.1777 152.395 40.3381 152.13 40.514C151.931 40.6455 151.363 40.4964 151.201 40.3554C150.803 40.0079 150.888 39.4637 150.942 39.0024C149.732 39.3353 148.232 39.2655 147.131 38.5703C147.074 38.5211 147.015 38.473 146.956 38.4259C146.897 38.3464 146.838 38.3628 146.779 38.4753C146.73 38.4865 146.653 38.5385 146.605 38.5604C146.371 38.6688 146.135 38.6786 145.882 38.6708C145.396 38.6558 144.914 38.5269 144.603 38.1313C144.29 37.7341 144.405 37.1635 144.521 36.698C144.642 36.2163 144.656 35.5795 145.083 35.2468C145.115 35.2983 145.148 35.3498 145.18 35.4013C145.179 35.5806 145.16 35.343 145.18 35.4013H145.18Z" fill="#D9D9D9"/>
    </svg>
    